<svg width="41" height="41" viewBox="0 0 41 41" fill="none" xmlns="http://www.w3.org/2000/svg">
<rect x="1.32931" y="1.1799" width="38.7572" height="38.7572" rx="13.4574" fill="white" stroke="#CBD5E1" stroke-width="1.07659"/>
<g clip-path="url(#clip0_221_22749)">
<path d="M19.1826 20.0201C19.1826 20.2818 19.2866 20.5328 19.4717 20.7179C19.6567 20.903 19.9078 21.0069 20.1695 21.0069C20.4312 21.0069 20.6822 20.903 20.8673 20.7179C21.0524 20.5328 21.1564 20.2818 21.1564 20.0201C21.1564 19.7583 21.0524 19.5073 20.8673 19.3223C20.6822 19.1372 20.4312 19.0332 20.1695 19.0332C19.9078 19.0332 19.6567 19.1372 19.4717 19.3223C19.2866 19.5073 19.1826 19.7583 19.1826 20.0201Z" stroke="#64748B" stroke-width="1.97375" stroke-linecap="round" stroke-linejoin="round"/>
<path d="M19.1826 26.9288C19.1826 27.1905 19.2866 27.4415 19.4717 27.6266C19.6567 27.8117 19.9078 27.9156 20.1695 27.9156C20.4312 27.9156 20.6822 27.8117 20.8673 27.6266C21.0524 27.4415 21.1564 27.1905 21.1564 26.9288C21.1564 26.667 21.0524 26.416 20.8673 26.2309C20.6822 26.0459 20.4312 25.9419 20.1695 25.9419C19.9078 25.9419 19.6567 26.0459 19.4717 26.2309C19.2866 26.416 19.1826 26.667 19.1826 26.9288Z" stroke="#64748B" stroke-width="1.97375" stroke-linecap="round" stroke-linejoin="round"/>
<path d="M19.1826 13.1128C19.1826 13.3746 19.2866 13.6256 19.4717 13.8107C19.6567 13.9957 19.9078 14.0997 20.1695 14.0997C20.4312 14.0997 20.6822 13.9957 20.8673 13.8107C21.0524 13.6256 21.1564 13.3746 21.1564 13.1128C21.1564 12.8511 21.0524 12.6001 20.8673 12.415C20.6822 12.23 20.4312 12.126 20.1695 12.126C19.9078 12.126 19.6567 12.23 19.4717 12.415C19.2866 12.6001 19.1826 12.8511 19.1826 13.1128Z" stroke="#64748B" stroke-width="1.97375" stroke-linecap="round" stroke-linejoin="round"/>
</g>
<defs>
<clipPath id="clip0_221_22749">
<rect width="23.6849" height="23.6849" fill="white" transform="translate(8.32715 8.17773)"/>
</clipPath>
</defs>
</svg>
