<svg width="27" height="28" viewBox="0 0 27 28" fill="none" xmlns="http://www.w3.org/2000/svg">
<path d="M16.2234 2.33272C16.2594 2.19788 16.3217 2.07146 16.4066 1.9607C16.4916 1.84994 16.5975 1.75699 16.7184 1.68719C16.8393 1.61738 16.9727 1.57207 17.1111 1.55385C17.2495 1.53563 17.3901 1.54485 17.5249 1.581C19.4946 2.09492 21.2917 3.12461 22.7311 4.56402C24.1705 6.00343 25.2002 7.80053 25.7141 9.77022C25.7503 9.90504 25.7595 10.0457 25.7413 10.1841C25.7231 10.3224 25.6778 10.4559 25.608 10.5768C25.5381 10.6976 25.4452 10.8036 25.3344 10.8885C25.2237 10.9734 25.0973 11.0357 24.9624 11.0718C24.8727 11.0954 24.7803 11.1074 24.6875 11.1076C24.4534 11.1076 24.2258 11.0303 24.0401 10.8876C23.8545 10.745 23.7212 10.545 23.6609 10.3187C23.2417 8.7108 22.4014 7.24374 21.2264 6.06877C20.0514 4.89379 18.5843 4.05342 16.9764 3.63428C16.8414 3.59836 16.7149 3.53618 16.604 3.4513C16.4931 3.36642 16.4 3.26051 16.33 3.13962C16.2601 3.01874 16.2147 2.88525 16.1964 2.74679C16.1781 2.60834 16.1872 2.46763 16.2234 2.33272ZM15.9139 7.88428C17.7454 8.37303 18.9221 9.54975 19.4109 11.3812C19.4712 11.6075 19.6045 11.8075 19.7901 11.9501C19.9758 12.0928 20.2034 12.1701 20.4375 12.1701C20.5303 12.1699 20.6227 12.1579 20.7124 12.1343C20.8473 12.0982 20.9737 12.0359 21.0844 11.951C21.1952 11.8661 21.2881 11.7601 21.358 11.6393C21.4278 11.5184 21.4731 11.3849 21.4913 11.2466C21.5095 11.1082 21.5003 10.9675 21.4641 10.8327C20.7841 8.28803 19.0071 6.511 16.4624 5.831C16.3276 5.79498 16.187 5.78588 16.0487 5.80419C15.9103 5.82251 15.7769 5.8679 15.6561 5.93777C15.5353 6.00763 15.4295 6.10061 15.3446 6.21138C15.2598 6.32216 15.1975 6.44856 15.1615 6.58338C15.1255 6.7182 15.1164 6.8588 15.1347 6.99714C15.153 7.13548 15.1984 7.26886 15.2683 7.38966C15.3382 7.51046 15.4311 7.61631 15.5419 7.70118C15.6527 7.78605 15.7791 7.84827 15.9139 7.88428ZM26.7966 20.548C26.5597 22.3476 25.6759 23.9995 24.3102 25.1952C22.9444 26.3908 21.1902 27.0484 19.375 27.0451C8.82969 27.0451 0.250001 18.4655 0.250001 7.92014C0.246747 6.10498 0.904351 4.3507 2.09999 2.98496C3.29563 1.61921 4.94754 0.735393 6.74719 0.498579C7.20227 0.443011 7.66313 0.536114 8.06095 0.763989C8.45878 0.991864 8.77223 1.34229 8.95453 1.76295L11.7595 8.02506V8.041C11.8991 8.36301 11.9567 8.71457 11.9273 9.06429C11.8979 9.41401 11.7823 9.75099 11.5909 10.0451C11.567 10.081 11.5417 10.1142 11.5152 10.1474L8.75 13.4252C9.74477 15.4466 11.8591 17.5424 13.9071 18.5398L17.1398 15.7893C17.1715 15.7626 17.2048 15.7378 17.2394 15.7149C17.5333 15.5189 17.8714 15.3992 18.2232 15.3668C18.575 15.3343 18.9293 15.39 19.2541 15.529L19.2714 15.5369L25.5282 18.3406C25.9496 18.5223 26.3009 18.8354 26.5295 19.2333C26.7581 19.6312 26.8518 20.0924 26.7966 20.548ZM24.6875 20.2823C24.6875 20.2823 24.6782 20.2823 24.6729 20.2823L18.4307 17.4866L15.1967 20.2372C15.1653 20.2637 15.1325 20.2886 15.0984 20.3115C14.7926 20.5156 14.4392 20.6368 14.0725 20.6633C13.7059 20.6898 13.3386 20.6208 13.0066 20.463C10.5191 19.261 8.03945 16.8 6.83617 14.339C6.67684 14.0094 6.60534 13.6443 6.62861 13.2789C6.65188 12.9136 6.76912 12.5605 6.96898 12.2538C6.99151 12.2178 7.01683 12.1836 7.04469 12.1515L9.8125 8.86975L7.02344 2.62756C7.02291 2.62226 7.02291 2.61693 7.02344 2.61163C5.73549 2.77963 4.55296 3.41137 3.6973 4.38854C2.84163 5.36571 2.37152 6.62129 2.375 7.92014C2.37992 12.4273 4.17257 16.7485 7.35962 19.9355C10.5467 23.1226 14.8678 24.9152 19.375 24.9201C20.6731 24.9246 21.9283 24.4561 22.906 23.6023C23.8838 22.7485 24.5171 21.5678 24.6875 20.281V20.2823Z" fill="#D57B49"/>
</svg>
