<svg width="9" height="14" viewBox="0 0 9 14" fill="none" xmlns="http://www.w3.org/2000/svg">
<path fill-rule="evenodd" clip-rule="evenodd" d="M0.23793 8.17129C1.03817 5.57032 1.2122 5.53725 0.516328 4.08885C0.516328 4.08885 2.15151 4.94466 2.22117 6.42613C3.61017 4.89716 3.82265 1.28067 2.29059 0.5C2.29059 0.5 6.63959 2.40961 6.32649 6.13007C6.32649 6.13007 7.1095 5.27403 6.86606 3.92416C8.28851 5.84228 9.6026 8.48153 8.70723 10.8436C8.42384 11.5914 7.89625 11.254 7.30176 11.0775C7.0301 10.9972 7.13072 11.2777 7.17991 11.4126C7.37042 11.9343 7.5437 12.2367 7.16518 12.7631C6.92798 13.0928 6.5929 13.2676 6.21463 13.4233C5.47182 13.7208 5.69154 13.0708 5.46682 12.8692C5.34897 12.7636 5.06808 13.0743 4.9702 13.1554C4.49231 13.5351 4.23413 13.2147 3.9455 12.8326C3.80492 12.6462 3.5877 12.3794 3.62865 12.1413C3.6691 11.9083 3.81341 11.8091 3.85886 11.6387C3.55873 11.6049 3.147 11.9796 3.04264 12.2287C2.95999 12.4257 2.95425 12.9713 2.70107 13.0086C2.5193 13.0353 2.32529 12.6086 2.25663 12.4784C2.14327 12.2634 2.03891 12.0423 1.92979 11.8251C1.75327 11.4771 1.70333 11.7306 1.65839 11.9444C1.51681 12.619 1.47012 13.0124 0.862142 12.2818C0.0386818 11.2925 -0.148332 9.89353 0.105098 8.6852C0.141801 8.51012 0.185996 8.34283 0.23793 8.17129Z" fill="#D57B49"/>
</svg>
