<svg width="124" height="23" viewBox="0 0 124 23" fill="none" xmlns="http://www.w3.org/2000/svg">
<rect x="0.25" y="0.25" width="73.5" height="22.5" rx="11.25" fill="white"/>
<rect x="0.25" y="0.25" width="73.5" height="22.5" rx="11.25" stroke="#D57B49" stroke-width="0.5"/>
<path d="M12.544 15V6.516H18.244V7.464H13.588V10.644H17.656V11.604H13.588V15H12.544ZM18.8876 15V8.676H19.8716L19.9196 9.66C20.0796 9.412 20.2636 9.212 20.4716 9.06C20.6876 8.908 20.9236 8.796 21.1796 8.724C21.4436 8.644 21.7276 8.604 22.0316 8.604C22.0876 8.604 22.1396 8.604 22.1876 8.604C22.2436 8.604 22.2996 8.604 22.3556 8.604V9.564H21.9836C21.4876 9.564 21.0836 9.672 20.7716 9.888C20.4676 10.096 20.2476 10.38 20.1116 10.74C19.9756 11.092 19.9076 11.484 19.9076 11.916V15H18.8876ZM25.407 15.072C24.743 15.072 24.187 14.936 23.739 14.664C23.291 14.384 22.955 14 22.731 13.512C22.515 13.024 22.407 12.468 22.407 11.844C22.407 11.212 22.519 10.656 22.743 10.176C22.967 9.688 23.303 9.304 23.751 9.024C24.199 8.744 24.759 8.604 25.431 8.604C26.095 8.604 26.647 8.744 27.087 9.024C27.535 9.304 27.867 9.688 28.083 10.176C28.307 10.656 28.419 11.212 28.419 11.844C28.419 12.468 28.307 13.024 28.083 13.512C27.859 14 27.523 14.384 27.075 14.664C26.635 14.936 26.079 15.072 25.407 15.072ZM25.407 14.172C25.871 14.172 26.247 14.068 26.535 13.86C26.831 13.652 27.047 13.372 27.183 13.02C27.327 12.668 27.399 12.276 27.399 11.844C27.399 11.412 27.327 11.02 27.183 10.668C27.047 10.316 26.831 10.036 26.535 9.828C26.247 9.62 25.871 9.516 25.407 9.516C24.951 9.516 24.575 9.62 24.279 9.828C23.991 10.036 23.775 10.316 23.631 10.668C23.495 11.02 23.427 11.412 23.427 11.844C23.427 12.276 23.495 12.668 23.631 13.02C23.775 13.372 23.991 13.652 24.279 13.86C24.575 14.068 24.951 14.172 25.407 14.172ZM29.1837 15V8.676H30.1677L30.2157 9.636C30.3597 9.404 30.5437 9.212 30.7677 9.06C30.9917 8.908 31.2357 8.796 31.4997 8.724C31.7717 8.644 32.0357 8.604 32.2917 8.604C32.9077 8.604 33.3877 8.732 33.7317 8.988C34.0837 9.244 34.3317 9.592 34.4757 10.032C34.6277 10.464 34.7037 10.956 34.7037 11.508V15H33.6837V11.784C33.6837 11.488 33.6637 11.204 33.6237 10.932C33.5917 10.66 33.5197 10.416 33.4077 10.2C33.3037 9.984 33.1517 9.816 32.9517 9.696C32.7517 9.568 32.4837 9.504 32.1477 9.504C31.7317 9.504 31.3757 9.62 31.0797 9.852C30.7917 10.084 30.5717 10.396 30.4197 10.788C30.2757 11.18 30.2037 11.62 30.2037 12.108V15H29.1837ZM38.0495 15.072C37.3855 15.072 36.9175 14.892 36.6455 14.532C36.3815 14.172 36.2495 13.66 36.2495 12.996V9.576H35.2175V8.676H36.2495V6.78H37.2695V8.676H39.2135V9.576H37.2695V12.864C37.2695 13.104 37.2895 13.324 37.3295 13.524C37.3695 13.716 37.4535 13.872 37.5815 13.992C37.7095 14.104 37.9015 14.164 38.1575 14.172C38.3415 14.172 38.5015 14.14 38.6375 14.076C38.7815 14.012 38.9015 13.936 38.9975 13.848L39.4415 14.592C39.3055 14.704 39.1615 14.796 39.0095 14.868C38.8655 14.94 38.7135 14.992 38.5535 15.024C38.4015 15.056 38.2335 15.072 38.0495 15.072ZM42.7057 15V6.516H43.7497V14.052H48.4057V15H42.7057ZM51.6095 15.072C50.9375 15.072 50.3815 14.936 49.9415 14.664C49.5015 14.384 49.1735 14 48.9575 13.512C48.7415 13.024 48.6335 12.468 48.6335 11.844C48.6335 11.212 48.7455 10.656 48.9695 10.176C49.2015 9.688 49.5375 9.304 49.9775 9.024C50.4175 8.744 50.9575 8.604 51.5975 8.604C52.0935 8.604 52.5175 8.7 52.8695 8.892C53.2295 9.076 53.5255 9.324 53.7575 9.636C53.9895 9.948 54.1575 10.292 54.2615 10.668C54.3655 11.036 54.4095 11.408 54.3935 11.784C54.3855 11.856 54.3775 11.928 54.3695 12C54.3695 12.072 54.3655 12.144 54.3575 12.216H49.6655C49.6975 12.584 49.7895 12.916 49.9415 13.212C50.0935 13.508 50.3095 13.744 50.5895 13.92C50.8695 14.088 51.2175 14.172 51.6335 14.172C51.8415 14.172 52.0495 14.148 52.2575 14.1C52.4735 14.044 52.6655 13.952 52.8335 13.824C53.0095 13.696 53.1335 13.524 53.2055 13.308H54.2495C54.1535 13.716 53.9735 14.052 53.7095 14.316C53.4455 14.572 53.1295 14.764 52.7615 14.892C52.3935 15.012 52.0095 15.072 51.6095 15.072ZM49.6895 11.328H53.3495C53.3415 10.968 53.2615 10.652 53.1095 10.38C52.9575 10.108 52.7495 9.896 52.4855 9.744C52.2295 9.592 51.9215 9.516 51.5615 9.516C51.1695 9.516 50.8375 9.6 50.5655 9.768C50.3015 9.936 50.0975 10.156 49.9535 10.428C49.8095 10.7 49.7215 11 49.6895 11.328ZM55.6473 15V9.576H54.6153V8.676H55.6473V8.004C55.6473 7.532 55.7113 7.148 55.8393 6.852C55.9753 6.548 56.1873 6.324 56.4753 6.18C56.7713 6.036 57.1593 5.964 57.6393 5.964H58.3593V6.864H57.7473C57.4593 6.864 57.2353 6.912 57.0753 7.008C56.9233 7.104 56.8153 7.248 56.7513 7.44C56.6953 7.624 56.6673 7.852 56.6673 8.124V8.676H58.3593V9.576H56.6673V15H55.6473ZM61.3978 15C60.9178 15 60.5298 14.928 60.2338 14.784C59.9458 14.64 59.7338 14.416 59.5978 14.112C59.4698 13.808 59.4058 13.424 59.4058 12.96V9.576H58.3738V8.676H59.4058V6.792H60.4258V8.676H62.1178V9.576H60.4258V12.852C60.4258 13.284 60.5018 13.604 60.6538 13.812C60.8138 14.012 61.1338 14.112 61.6138 14.112H62.0818V15H61.3978Z" fill="black"/>
<path d="M123.5 12C123.776 12 124 11.7761 124 11.5C124 11.2239 123.776 11 123.5 11L123.5 12ZM81.6667 11.5C81.6667 10.0272 80.4728 8.83334 79 8.83334C77.5272 8.83334 76.3333 10.0272 76.3333 11.5C76.3333 12.9728 77.5272 14.1667 79 14.1667C80.4728 14.1667 81.6667 12.9728 81.6667 11.5ZM123.5 11L79 11L79 12L123.5 12L123.5 11Z" fill="#D57B49"/>
</svg>
