<svg width="125" height="23" viewBox="0 0 125 23" fill="none" xmlns="http://www.w3.org/2000/svg">
<path d="M1 11C0.723858 11 0.5 11.2239 0.5 11.5C0.5 11.7761 0.723858 12 1 12V11ZM42.8333 11.5C42.8333 12.9728 44.0272 14.1667 45.5 14.1667C46.9728 14.1667 48.1667 12.9728 48.1667 11.5C48.1667 10.0272 46.9728 8.83333 45.5 8.83333C44.0272 8.83333 42.8333 10.0272 42.8333 11.5ZM1 12H45.5V11H1V12Z" fill="#D57B49"/>
<rect x="50.75" y="0.25" width="73.5" height="22.5" rx="11.25" fill="white"/>
<rect x="50.75" y="0.25" width="73.5" height="22.5" rx="11.25" stroke="#D57B49" stroke-width="0.5"/>
<path d="M59.544 15V6.516H65.244V7.464H60.588V10.644H64.656V11.604H60.588V15H59.544ZM65.8876 15V8.676H66.8716L66.9196 9.66C67.0796 9.412 67.2636 9.212 67.4716 9.06C67.6876 8.908 67.9236 8.796 68.1796 8.724C68.4436 8.644 68.7276 8.604 69.0316 8.604C69.0876 8.604 69.1396 8.604 69.1876 8.604C69.2436 8.604 69.2996 8.604 69.3556 8.604V9.564H68.9836C68.4876 9.564 68.0836 9.672 67.7716 9.888C67.4676 10.096 67.2476 10.38 67.1116 10.74C66.9756 11.092 66.9076 11.484 66.9076 11.916V15H65.8876ZM72.407 15.072C71.743 15.072 71.187 14.936 70.739 14.664C70.291 14.384 69.955 14 69.731 13.512C69.515 13.024 69.407 12.468 69.407 11.844C69.407 11.212 69.519 10.656 69.743 10.176C69.967 9.688 70.303 9.304 70.751 9.024C71.199 8.744 71.759 8.604 72.431 8.604C73.095 8.604 73.647 8.744 74.087 9.024C74.535 9.304 74.867 9.688 75.083 10.176C75.307 10.656 75.419 11.212 75.419 11.844C75.419 12.468 75.307 13.024 75.083 13.512C74.859 14 74.523 14.384 74.075 14.664C73.635 14.936 73.079 15.072 72.407 15.072ZM72.407 14.172C72.871 14.172 73.247 14.068 73.535 13.86C73.831 13.652 74.047 13.372 74.183 13.02C74.327 12.668 74.399 12.276 74.399 11.844C74.399 11.412 74.327 11.02 74.183 10.668C74.047 10.316 73.831 10.036 73.535 9.828C73.247 9.62 72.871 9.516 72.407 9.516C71.951 9.516 71.575 9.62 71.279 9.828C70.991 10.036 70.775 10.316 70.631 10.668C70.495 11.02 70.427 11.412 70.427 11.844C70.427 12.276 70.495 12.668 70.631 13.02C70.775 13.372 70.991 13.652 71.279 13.86C71.575 14.068 71.951 14.172 72.407 14.172ZM76.1837 15V8.676H77.1677L77.2157 9.636C77.3597 9.404 77.5437 9.212 77.7677 9.06C77.9917 8.908 78.2357 8.796 78.4997 8.724C78.7717 8.644 79.0357 8.604 79.2917 8.604C79.9077 8.604 80.3877 8.732 80.7317 8.988C81.0837 9.244 81.3317 9.592 81.4757 10.032C81.6277 10.464 81.7037 10.956 81.7037 11.508V15H80.6837V11.784C80.6837 11.488 80.6637 11.204 80.6237 10.932C80.5917 10.66 80.5197 10.416 80.4077 10.2C80.3037 9.984 80.1517 9.816 79.9517 9.696C79.7517 9.568 79.4837 9.504 79.1477 9.504C78.7317 9.504 78.3757 9.62 78.0797 9.852C77.7917 10.084 77.5717 10.396 77.4197 10.788C77.2757 11.18 77.2037 11.62 77.2037 12.108V15H76.1837ZM85.0495 15.072C84.3855 15.072 83.9175 14.892 83.6455 14.532C83.3815 14.172 83.2495 13.66 83.2495 12.996V9.576H82.2175V8.676H83.2495V6.78H84.2695V8.676H86.2135V9.576H84.2695V12.864C84.2695 13.104 84.2895 13.324 84.3295 13.524C84.3695 13.716 84.4535 13.872 84.5815 13.992C84.7095 14.104 84.9015 14.164 85.1575 14.172C85.3415 14.172 85.5015 14.14 85.6375 14.076C85.7815 14.012 85.9015 13.936 85.9975 13.848L86.4415 14.592C86.3055 14.704 86.1615 14.796 86.0095 14.868C85.8655 14.94 85.7135 14.992 85.5535 15.024C85.4015 15.056 85.2335 15.072 85.0495 15.072ZM89.7057 15V6.516H92.8857C93.3577 6.516 93.7777 6.564 94.1457 6.66C94.5217 6.756 94.8417 6.908 95.1057 7.116C95.3697 7.324 95.5697 7.6 95.7057 7.944C95.8497 8.28 95.9217 8.688 95.9217 9.168C95.9217 9.64 95.8337 10.044 95.6577 10.38C95.4817 10.708 95.2497 10.976 94.9617 11.184C94.6737 11.392 94.3617 11.544 94.0257 11.64L95.8017 15H94.6617L92.9697 11.82H90.7497V15H89.7057ZM90.7497 10.872H92.5497C92.8617 10.872 93.1537 10.848 93.4257 10.8C93.7057 10.752 93.9497 10.668 94.1577 10.548C94.3737 10.42 94.5417 10.244 94.6617 10.02C94.7817 9.788 94.8457 9.492 94.8537 9.132C94.8617 8.724 94.7857 8.4 94.6257 8.16C94.4657 7.912 94.2297 7.736 93.9177 7.632C93.6057 7.52 93.2257 7.464 92.7777 7.464H90.7497V10.872ZM96.7642 15V8.676H97.7842V15H96.7642ZM97.2682 7.74C97.0602 7.74 96.8922 7.676 96.7642 7.548C96.6442 7.42 96.5842 7.256 96.5842 7.056C96.5842 6.856 96.6482 6.696 96.7762 6.576C96.9042 6.448 97.0682 6.384 97.2682 6.384C97.4522 6.384 97.6122 6.448 97.7482 6.576C97.8922 6.704 97.9642 6.864 97.9642 7.056C97.9642 7.256 97.8962 7.42 97.7602 7.548C97.6242 7.676 97.4602 7.74 97.2682 7.74ZM101.537 17.832C101.105 17.832 100.705 17.764 100.337 17.628C99.9692 17.5 99.6572 17.296 99.4012 17.016C99.1452 16.736 98.9732 16.38 98.8852 15.948H99.9412C100.005 16.188 100.125 16.38 100.301 16.524C100.477 16.668 100.681 16.768 100.913 16.824C101.145 16.888 101.373 16.92 101.597 16.92C102.029 16.92 102.377 16.832 102.641 16.656C102.913 16.488 103.109 16.252 103.229 15.948C103.349 15.652 103.409 15.312 103.409 14.928V14.052C103.273 14.292 103.093 14.488 102.869 14.64C102.645 14.792 102.401 14.904 102.137 14.976C101.873 15.04 101.601 15.072 101.321 15.072C100.681 15.072 100.157 14.932 99.7492 14.652C99.3412 14.364 99.0372 13.98 98.8372 13.5C98.6452 13.012 98.5492 12.464 98.5492 11.856C98.5492 11.248 98.6492 10.7 98.8492 10.212C99.0492 9.716 99.3572 9.324 99.7732 9.036C100.189 8.748 100.721 8.604 101.369 8.604C101.737 8.604 102.109 8.672 102.485 8.808C102.861 8.944 103.169 9.164 103.409 9.468L103.457 8.676H104.429V14.952C104.429 15.544 104.321 16.056 104.105 16.488C103.897 16.92 103.577 17.252 103.145 17.484C102.721 17.716 102.185 17.832 101.537 17.832ZM101.465 14.172C101.889 14.172 102.245 14.064 102.533 13.848C102.821 13.632 103.041 13.344 103.193 12.984C103.345 12.624 103.421 12.232 103.421 11.808C103.421 11.368 103.345 10.976 103.193 10.632C103.049 10.288 102.833 10.016 102.545 9.816C102.257 9.616 101.893 9.516 101.453 9.516C100.997 9.516 100.629 9.62 100.349 9.828C100.077 10.036 99.8772 10.316 99.7492 10.668C99.6292 11.02 99.5692 11.412 99.5692 11.844C99.5692 12.292 99.6332 12.692 99.7612 13.044C99.8892 13.396 100.093 13.672 100.373 13.872C100.653 14.072 101.017 14.172 101.465 14.172ZM105.431 15V6.516H106.451V9.648C106.603 9.424 106.787 9.236 107.003 9.084C107.227 8.924 107.471 8.804 107.735 8.724C107.999 8.644 108.271 8.604 108.551 8.604C109.167 8.604 109.647 8.732 109.991 8.988C110.343 9.244 110.591 9.592 110.735 10.032C110.879 10.464 110.951 10.96 110.951 11.52V15H109.931V11.832C109.931 11.552 109.911 11.276 109.871 11.004C109.839 10.724 109.771 10.472 109.667 10.248C109.563 10.024 109.403 9.844 109.187 9.708C108.979 9.572 108.695 9.504 108.335 9.504C107.991 9.504 107.695 9.58 107.447 9.732C107.207 9.884 107.015 10.088 106.871 10.344C106.727 10.592 106.619 10.868 106.547 11.172C106.483 11.468 106.451 11.76 106.451 12.048V15H105.431ZM114.489 15C114.009 15 113.621 14.928 113.325 14.784C113.037 14.64 112.825 14.416 112.689 14.112C112.561 13.808 112.497 13.424 112.497 12.96V9.576H111.465V8.676H112.497V6.792H113.517V8.676H115.209V9.576H113.517V12.852C113.517 13.284 113.593 13.604 113.745 13.812C113.905 14.012 114.225 14.112 114.705 14.112H115.173V15H114.489Z" fill="black"/>
</svg>
