<svg width="35" height="24" viewBox="0 0 35 24" fill="none" xmlns="http://www.w3.org/2000/svg">
<rect x="0.5" y="0.5" width="34" height="23" rx="3.5" fill="white" stroke="#D9D9D9"/>
<path fill-rule="evenodd" clip-rule="evenodd" d="M16.5296 15.7585V12.7375H18.0888C18.7277 12.7375 19.267 12.5234 19.7066 12.1012L19.8121 11.9942C20.6152 11.12 20.5624 9.75817 19.7066 8.94941C19.2787 8.52125 18.6926 8.28932 18.0888 8.30122H15.5859V15.7585H16.5296ZM16.5298 11.8217V9.21703H18.1126C18.4527 9.21703 18.7751 9.34786 19.0155 9.58573C19.5255 10.0853 19.5372 10.9178 19.0448 11.4352C18.8044 11.6909 18.4644 11.8336 18.1126 11.8217H16.5298ZM24.2142 11.0546C23.8097 10.6799 23.2587 10.4896 22.5612 10.4896C21.6644 10.4896 20.9903 10.8227 20.5448 11.4827L21.3772 12.012C21.682 11.5601 22.0982 11.3341 22.6257 11.3341C22.9598 11.3341 23.2822 11.459 23.5342 11.6849C23.7804 11.899 23.9211 12.2083 23.9211 12.5353V12.7554C23.5577 12.5532 23.1005 12.4461 22.5378 12.4461C21.8813 12.4461 21.3537 12.6007 20.961 12.9159C20.5683 13.2311 20.369 13.6474 20.369 14.1766C20.3573 14.6583 20.5624 15.1162 20.9259 15.4254C21.2951 15.7585 21.7641 15.925 22.315 15.925C22.9657 15.925 23.4815 15.6336 23.8742 15.0508H23.9152V15.7585H24.8179V12.6126C24.8179 11.9525 24.6186 11.4292 24.2142 11.0546ZM21.6529 14.8189C21.4594 14.6761 21.3421 14.4442 21.3421 14.1944C21.3421 13.9149 21.4711 13.683 21.7232 13.4987C21.9812 13.3143 22.3036 13.2192 22.6847 13.2192C23.2123 13.2132 23.6227 13.3322 23.9158 13.57C23.9158 13.9744 23.7575 14.3253 23.4468 14.6226C23.1654 14.9081 22.7843 15.0686 22.3857 15.0686C22.1219 15.0746 21.8639 14.9854 21.6529 14.8189ZM26.846 18.0004L29.9995 10.6562H28.9738L27.5142 14.3194H27.4967L26.002 10.6562H24.9762L27.0453 15.4314L25.873 18.0004H26.846Z" fill="#3C4043"/>
<path d="M13.272 12.0831C13.272 11.7917 13.2486 11.5003 13.2017 11.2148H9.22168V12.8621H11.5018C11.408 13.3914 11.1032 13.8671 10.6578 14.1644V15.2349H12.0176C12.8148 14.4915 13.272 13.3914 13.272 12.0831Z" fill="#4285F4"/>
<path d="M9.22211 16.2696C10.3592 16.2696 11.3205 15.889 12.0181 15.2349L10.6582 14.1645C10.2772 14.4261 9.79068 14.5748 9.22211 14.5748C8.12013 14.5748 7.18815 13.8195 6.85404 12.8086H5.45312V13.9147C6.16824 15.3598 7.62776 16.2696 9.22211 16.2696Z" fill="#34A853"/>
<path d="M6.85401 12.8088C6.67814 12.2796 6.67814 11.7027 6.85401 11.1675V10.0674H5.45288C4.84904 11.2746 4.84904 12.7018 5.45288 13.909L6.85401 12.8088Z" fill="#FBBC04"/>
<path d="M9.22211 9.40114C9.82585 9.38925 10.4061 9.62117 10.8399 10.0434L12.0474 8.81836C11.2795 8.09285 10.2713 7.69442 9.22211 7.70631C7.62776 7.70631 6.16824 8.62211 5.45312 10.0672L6.85404 11.1733C7.18815 10.1564 8.12013 9.40114 9.22211 9.40114Z" fill="#EA4335"/>
</svg>
