<svg width="20" height="20" viewBox="0 0 20 20" fill="none" xmlns="http://www.w3.org/2000/svg">
<path opacity="0.4" d="M9.99998 16.6668C13.6819 16.6668 16.6666 13.6821 16.6666 10.0002C16.6666 6.31826 13.6819 3.3335 9.99998 3.3335C6.31808 3.3335 3.33331 6.31826 3.33331 10.0002C3.33331 13.6821 6.31808 16.6668 9.99998 16.6668Z" fill="white"/>
<path d="M10 12.5999C11.436 12.5999 12.6 11.4358 12.6 9.9999C12.6 8.56396 11.436 7.3999 10 7.3999C8.56408 7.3999 7.40002 8.56396 7.40002 9.9999C7.40002 11.4358 8.56408 12.5999 10 12.5999Z" fill="white"/>
<path d="M10.625 1.6665V3.3665H10.6167C10.4167 3.3415 10.2083 3.33317 10 3.33317C9.79167 3.33317 9.58333 3.3415 9.38333 3.3665H9.375V1.6665C9.375 1.32484 9.65833 1.0415 10 1.0415C10.3417 1.0415 10.625 1.32484 10.625 1.6665Z" fill="white"/>
<path d="M3.33335 10C3.33335 10.2083 3.34169 10.425 3.36669 10.625H1.66669C1.32502 10.625 1.04169 10.3417 1.04169 10C1.04169 9.65833 1.32502 9.375 1.66669 9.375H3.36669C3.34169 9.575 3.33335 9.79167 3.33335 10Z" fill="white"/>
<path d="M10.625 16.6333V18.3333C10.625 18.675 10.3417 18.9583 10 18.9583C9.65833 18.9583 9.375 18.675 9.375 18.3333V16.6333H9.38333C9.58333 16.6583 9.79167 16.6666 10 16.6666C10.2083 16.6666 10.4167 16.6583 10.6167 16.6333H10.625Z" fill="white"/>
<path d="M18.9584 10C18.9584 10.3417 18.675 10.625 18.3334 10.625H16.6334C16.6584 10.425 16.6667 10.2083 16.6667 10C16.6667 9.79167 16.6584 9.575 16.6334 9.375H18.3334C18.675 9.375 18.9584 9.65833 18.9584 10Z" fill="white"/>
</svg>
