<svg width="20" height="20" viewBox="0 0 20 20" fill="none" xmlns="http://www.w3.org/2000/svg">
<path opacity="0.4" d="M7.5 5.99984V13.9915C7.5 16.6665 9.16667 18.3332 11.8333 18.3332H13.9917C16.6583 18.3332 18.325 16.6665 18.325 13.9998V5.99984C18.3333 3.33317 16.6667 1.6665 14 1.6665H11.8333C9.16667 1.6665 7.5 3.33317 7.5 5.99984Z" fill="#D57B49"/>
<path d="M4.64168 6.7666L1.85001 9.55827C1.60835 9.79994 1.60835 10.1999 1.85001 10.4416L4.64168 13.2333C4.88335 13.4749 5.28335 13.4749 5.52501 13.2333C5.76668 12.9916 5.76668 12.5916 5.52501 12.3499L3.80001 10.6249H12.7083C13.05 10.6249 13.3333 10.3416 13.3333 9.99993C13.3333 9.65827 13.05 9.37493 12.7083 9.37493H3.80001L5.52501 7.64994C5.65001 7.52494 5.70835 7.3666 5.70835 7.20827C5.70835 7.04993 5.65001 6.88327 5.52501 6.7666C5.28335 6.5166 4.89168 6.5166 4.64168 6.7666Z" fill="#D57B49"/>
</svg>
