<svg width="26" height="27" viewBox="0 0 26 27" fill="none" xmlns="http://www.w3.org/2000/svg">
<path d="M25.4636 0.838438C25.23 0.605058 24.9384 0.438153 24.6188 0.354914C24.2993 0.271676 23.9633 0.275113 23.6455 0.364872H23.6281L1.34417 7.12479C0.981429 7.22908 0.659073 7.44138 0.420027 7.73341C0.180982 8.02543 0.0365903 8.38334 0.00608 8.75945C-0.0244303 9.13557 0.0603886 9.51206 0.249242 9.83878C0.438096 10.1655 0.722022 10.427 1.06321 10.5883L11.0035 15.295L15.7113 25.2329C15.86 25.5511 16.0966 25.8202 16.3932 26.0084C16.6898 26.1966 17.0341 26.296 17.3855 26.2949C17.4389 26.2949 17.4923 26.2926 17.5457 26.2879C17.9206 26.2576 18.2772 26.1134 18.5677 25.8746C18.8582 25.6358 19.0688 25.3138 19.171 24.952L25.928 2.67351C25.928 2.6677 25.928 2.6619 25.928 2.65609C26.0189 2.33918 26.0238 2.00377 25.9422 1.68433C25.8606 1.36489 25.6954 1.07293 25.4636 0.838438ZM17.3959 24.4204L17.3901 24.4366L12.8205 14.7924L18.305 9.30807C18.4718 9.13251 18.5634 8.89875 18.5603 8.65661C18.5572 8.41448 18.4596 8.18314 18.2884 8.01191C18.1171 7.84068 17.8857 7.74312 17.6435 7.74002C17.4013 7.73692 17.1675 7.82853 16.9919 7.99531L11.5062 13.4785L1.85849 8.90995H1.87474L24.1493 2.15235L17.3959 24.4204Z" fill="#D57B49"/>
</svg>
