<svg width="91" height="13" viewBox="0 0 91 13" fill="none" xmlns="http://www.w3.org/2000/svg">
<path d="M4.44748 1.28305C5.03445 -0.130807 6.99673 -0.130807 7.5837 1.28305L7.99254 2.26784C8.23292 2.84686 8.76067 3.24825 9.37278 3.31762L10.5137 3.44691C11.9545 3.61019 12.5496 5.41979 11.4973 6.43799L10.5286 7.3753C10.1027 7.78741 9.91454 8.39436 10.0306 8.98168L10.2644 10.1656C10.5605 11.6643 8.95498 12.7958 7.6878 11.9816L6.92267 11.49C6.36826 11.1337 5.66292 11.1337 5.10851 11.49L4.34338 11.9816C3.0762 12.7958 1.47069 11.6643 1.76674 10.1656L2.00062 8.98168C2.11664 8.39436 1.92845 7.78741 1.50255 7.3753L0.533858 6.43799C-0.518423 5.41979 0.0766761 3.61019 1.51749 3.44691L2.6584 3.31762C3.27051 3.24825 3.79826 2.84686 4.03864 2.26784L4.44748 1.28305Z" fill="#FFCE31"/>
<path d="M23.9981 1.28305C24.5851 -0.130807 26.5474 -0.130807 27.1344 1.28305L27.5432 2.26784C27.7836 2.84686 28.3113 3.24825 28.9234 3.31762L30.0643 3.44691C31.5052 3.61019 32.1003 5.41979 31.048 6.43799L30.0793 7.3753C29.6534 7.78741 29.4652 8.39436 29.5812 8.98168L29.8151 10.1656C30.1112 11.6643 28.5056 12.7958 27.2385 11.9816L26.4733 11.49C25.9189 11.1337 25.2136 11.1337 24.6592 11.49L23.894 11.9816C22.6269 12.7958 21.0213 11.6643 21.3174 10.1656L21.5513 8.98168C21.6673 8.39436 21.4791 7.78741 21.0532 7.3753L20.0845 6.43799C19.0322 5.41979 19.6273 3.61019 21.0682 3.44691L22.2091 3.31762C22.8212 3.24825 23.3489 2.84686 23.5893 2.26784L23.9981 1.28305Z" fill="#FFCE31"/>
<path d="M43.5488 1.28305C44.1358 -0.130807 46.0981 -0.130807 46.685 1.28305L47.0939 2.26784C47.3342 2.84686 47.862 3.24825 48.4741 3.31762L49.615 3.44691C51.0558 3.61019 51.6509 5.41979 50.5986 6.43799L49.63 7.3753C49.2041 7.78741 49.0159 8.39436 49.1319 8.98168L49.3658 10.1656C49.6618 11.6643 48.0563 12.7958 46.7891 11.9816L46.024 11.49C45.4696 11.1337 44.7642 11.1337 44.2098 11.49L43.4447 11.9816C42.1775 12.7958 40.572 11.6643 40.8681 10.1656L41.1019 8.98168C41.218 8.39436 41.0298 7.78741 40.6039 7.3753L39.6352 6.43799C38.5829 5.41979 39.178 3.61019 40.6188 3.44691L41.7597 3.31762C42.3718 3.24825 42.8996 2.84686 43.14 2.26784L43.5488 1.28305Z" fill="#FFCE31"/>
<path d="M63.0995 1.28305C63.6864 -0.130807 65.6487 -0.130807 66.2357 1.28305L66.6445 2.26784C66.8849 2.84686 67.4127 3.24825 68.0248 3.31762L69.1657 3.44691C70.6065 3.61019 71.2016 5.41979 70.1493 6.43799L69.1806 7.3753C68.7547 7.78741 68.5665 8.39436 68.6825 8.98168L68.9164 10.1656C69.2125 11.6643 67.607 12.7958 66.3398 11.9816L65.5746 11.49C65.0202 11.1337 64.3149 11.1337 63.7605 11.49L62.9954 11.9816C61.7282 12.7958 60.1227 11.6643 60.4187 10.1656L60.6526 8.98168C60.7686 8.39436 60.5804 7.78741 60.1545 7.3753L59.1858 6.43799C58.1336 5.41979 58.7287 3.61019 60.1695 3.44691L61.3104 3.31762C61.9225 3.24825 62.4502 2.84686 62.6906 2.26784L63.0995 1.28305Z" fill="#FFCE31"/>
<path d="M82.6502 1.28305C83.2371 -0.130807 85.1994 -0.130807 85.7864 1.28305L86.1952 2.26784C86.4356 2.84686 86.9634 3.24825 87.5755 3.31762L88.7164 3.44691C90.1572 3.61019 90.7523 5.41979 89.7 6.43799L88.7313 7.3753C88.3054 7.78741 88.1172 8.39436 88.2333 8.98168L88.4671 10.1656C88.7632 11.6643 87.1577 12.7958 85.8905 11.9816L85.1254 11.49C84.571 11.1337 83.8656 11.1337 83.3112 11.49L82.5461 11.9816C81.2789 12.7958 79.6734 11.6643 79.9694 10.1656L80.2033 8.98168C80.3193 8.39436 80.1311 7.78741 79.7052 7.3753L78.7366 6.43799C77.6843 5.41979 78.2794 3.61019 79.7202 3.44691L80.8611 3.31762C81.4732 3.24825 82.001 2.84686 82.2413 2.26784L82.6502 1.28305Z" fill="#FFCE31"/>
</svg>
