<svg width="30" height="32" viewBox="0 0 30 32" fill="none" xmlns="http://www.w3.org/2000/svg">
<path d="M28.2874 16.2153C28.0837 15.9023 28.0837 15.4981 28.2874 15.1851L29.4206 13.4433C30.4528 11.8568 29.7573 9.72523 27.9931 9.04994L26.0525 8.30691C25.7038 8.17334 25.466 7.84625 25.4469 7.47334L25.34 5.3982C25.2425 3.50828 23.4271 2.19204 21.6026 2.68295L19.596 3.22246C19.2355 3.3193 18.8509 3.1944 18.6162 2.90403L17.3098 1.28798C16.1201 -0.183764 13.878 -0.181401 12.6903 1.28798L11.3838 2.9041C11.1491 3.19452 10.7647 3.3193 10.404 3.22252L8.39732 2.68301C6.56927 2.19137 4.75716 3.51197 4.65995 5.39827L4.55298 7.47341C4.5337 7.84625 4.29607 8.1734 3.9474 8.30691L2.00693 9.04994C0.239001 9.72668 -0.450934 11.8599 0.579298 13.4433L1.71257 15.1851C1.91614 15.498 1.91614 15.9024 1.71257 16.2153L0.579483 17.9571C-0.452873 19.5438 0.24288 21.6753 2.00699 22.3505L3.94759 23.0935C4.29625 23.2271 4.53395 23.5542 4.55316 23.927L4.66012 26.0022C4.75758 27.8925 6.57332 29.2082 8.3975 28.7174L10.4041 28.178C10.7648 28.0812 11.1492 28.206 11.384 28.4963L12.6903 30.1123C13.8803 31.5845 16.1223 31.5815 17.3099 30.1123L18.6162 28.4963C18.8509 28.2061 19.2356 28.0813 19.5961 28.178L21.6028 28.7174C23.4304 29.2093 25.2428 27.8887 25.3402 26.0022L25.4471 23.927C25.4663 23.5542 25.704 23.2271 26.0527 23.0936L27.9932 22.3505C29.7609 21.6738 30.451 19.5406 29.4209 17.9571L28.2874 16.2153ZM27.2688 20.4589L25.3282 21.2019C24.2319 21.6217 23.4846 22.6504 23.4241 23.8227L23.3172 25.8978C23.2862 26.4991 22.7089 26.9173 22.1285 26.7614L20.1218 26.2219C18.9883 25.9169 17.7788 26.3101 17.0409 27.223L15.7346 28.839C15.3562 29.3072 14.6433 29.3062 14.2655 28.839L12.9593 27.223C12.3872 26.5153 11.532 26.1201 10.6482 26.1201C10.3919 26.1201 10.1331 26.1533 9.87816 26.2219L7.87144 26.7614C7.28987 26.9176 6.71387 26.4979 6.68284 25.8978L6.57588 23.8227C6.51545 22.6504 5.768 21.6217 4.67176 21.2019L2.73117 20.4588C2.16893 20.2435 1.9496 19.5652 2.27723 19.0617L3.41044 17.32C4.05062 16.3359 4.05062 15.0643 3.41044 14.0804L2.27723 12.3388C1.94887 11.8341 2.17008 11.1563 2.73123 10.9415L4.67183 10.1984C5.76812 9.77876 6.51551 8.75 6.57593 7.57771L6.6829 5.50257C6.71387 4.9013 7.29114 4.48312 7.87151 4.63899L9.87826 5.1785C11.0118 5.48342 12.2212 5.09033 12.9592 4.17743L14.2656 2.56137C14.644 2.09325 15.357 2.09422 15.7346 2.56137L17.041 4.17749C17.7791 5.09039 18.9883 5.48347 20.1219 5.1785L22.1287 4.63899C22.7102 4.48281 23.2863 4.90251 23.3173 5.50257L23.4241 7.57771C23.4846 8.75 24.232 9.77876 25.3282 10.1984L27.2689 10.9415C27.8311 11.1567 28.0504 11.8351 27.7228 12.3388L26.5897 14.0804C25.9494 15.0643 25.9494 16.3359 26.5896 17.32L27.7228 19.0617C28.0511 19.5664 27.83 20.244 27.2688 20.4589Z" fill="#D57B49"/>
<path d="M20.0597 10.5384C19.6643 10.1428 19.023 10.1428 18.6275 10.5384L9.175 19.9908C8.77955 20.3862 8.77955 21.0275 9.17506 21.423C9.37286 21.6207 9.63206 21.7196 9.89116 21.7196C10.1504 21.7196 10.4096 21.6207 10.6073 21.423L20.0597 11.9705C20.4552 11.5751 20.4552 10.9338 20.0597 10.5384Z" fill="#D57B49"/>
<path d="M10.9039 10.2417C9.78701 10.2417 8.87842 11.1504 8.87842 12.2672C8.87842 13.3841 9.78711 14.2927 10.9039 14.2927C12.0208 14.2927 12.9294 13.3841 12.9294 12.2672C12.9295 11.1504 12.0208 10.2417 10.9039 10.2417Z" fill="#D57B49"/>
<path d="M18.3307 17.6699C17.2138 17.6699 16.3052 18.5786 16.3052 19.6955C16.3052 20.8124 17.2138 21.721 18.3307 21.721C19.4475 21.721 20.3562 20.8123 20.3562 19.6955C20.3563 18.5786 19.4476 17.6699 18.3307 17.6699Z" fill="#D57B49"/>
</svg>
