<svg width="25" height="25" viewBox="0 0 25 25" fill="none" xmlns="http://www.w3.org/2000/svg">
<path d="M10.5469 9.24512C10.5469 8.16644 11.4214 7.29199 12.5 7.29199C13.5786 7.29199 14.4531 8.16644 14.4531 9.24512C14.4531 9.96121 14.0677 10.5873 13.4931 10.9273C12.9979 11.2202 12.5 11.6646 12.5 12.2399V13.542" stroke="#D57B49" stroke-width="1.5625" stroke-linecap="round"/>
<path d="M12.5026 17.7083C13.0779 17.7083 13.5443 17.242 13.5443 16.6667C13.5443 16.0914 13.0779 15.625 12.5026 15.625C11.9273 15.625 11.4609 16.0914 11.4609 16.6667C11.4609 17.242 11.9273 17.7083 12.5026 17.7083Z" fill="#D57B49"/>
<path d="M22.9193 12.4997C22.9193 17.4101 22.9193 19.8654 21.3937 21.3908C19.8683 22.9163 17.413 22.9163 12.5026 22.9163C7.59214 22.9163 5.13691 22.9163 3.61143 21.3908C2.08594 19.8654 2.08594 17.4101 2.08594 12.4997C2.08594 7.58921 2.08594 5.13398 3.61143 3.6085C5.13691 2.08301 7.59214 2.08301 12.5026 2.08301C17.413 2.08301 19.8683 2.08301 21.3937 3.6085C22.4081 4.62281 22.748 6.04816 22.8619 8.33301" stroke="#D57B49" stroke-width="1.5625" stroke-linecap="round"/>
</svg>
