<svg width="24" height="24" viewBox="0 0 24 24" fill="none" xmlns="http://www.w3.org/2000/svg">
<path d="M13.7625 1.7627H4.30262C3.8732 1.7627 3.52505 2.11084 3.52505 2.54026C3.52505 2.96968 3.8732 3.31782 4.30262 3.31782H8.34447C7.49172 3.85187 6.72283 4.50775 6.06259 5.26126H0.777564C0.348141 5.26131 0 5.6095 0 6.03892C0 6.46835 0.348141 6.81649 0.777564 6.81649H4.93773C4.04063 8.33786 3.52501 10.1098 3.52501 12.0002C3.52501 14.1997 4.22246 16.2395 5.40756 17.91H3.20133C2.77191 17.91 2.42377 18.2582 2.42377 18.6876C2.42377 19.117 2.77191 19.4652 3.20133 19.4652H6.76473C7.24956 19.92 7.77855 20.328 8.34447 20.6825H0.857767C0.428345 20.6825 0.0802033 21.0306 0.0802033 21.46C0.0802033 21.8895 0.428345 22.2376 0.857767 22.2376H13.7625C19.4076 22.2376 24 17.6451 24 12.0001C24 6.35519 19.4075 1.7627 13.7625 1.7627ZM13.7625 20.6826C8.97508 20.6826 5.08023 16.7877 5.08023 12.0002C5.08023 7.21272 8.97508 3.31787 13.7625 3.31787C18.55 3.31787 22.4448 7.21272 22.4448 12.0002C22.4448 16.7876 18.55 20.6826 13.7625 20.6826Z" fill="#D57B49"/>
<path d="M13.7625 5.64893C10.2604 5.64893 7.41125 8.49809 7.41125 12.0002C7.41125 14.0886 8.42465 15.9447 9.9854 17.103C9.9997 17.1151 10.0139 17.1273 10.0293 17.1384C10.0467 17.151 10.0644 17.1628 10.0824 17.1737C11.1213 17.9149 12.3919 18.3514 13.7625 18.3514C15.1331 18.3514 16.4036 17.9149 17.4426 17.1737C17.4606 17.1628 17.4783 17.151 17.4957 17.1384C17.5111 17.1272 17.5253 17.115 17.5396 17.103C19.1003 15.9447 20.1137 14.0886 20.1137 12.0002C20.1137 8.49813 17.2646 5.64893 13.7625 5.64893ZM14.5401 7.26748C16.0575 7.51596 17.3376 8.47878 18.0224 9.79845L16.0089 10.4527C15.6591 9.94653 15.143 9.56407 14.5401 9.3845V7.26748H14.5401ZM14.9365 12.0001C14.9365 12.6475 14.4098 13.1741 13.7625 13.1741C13.1152 13.1741 12.5885 12.6475 12.5885 12.0001C12.5885 11.3528 13.1152 10.8261 13.7625 10.8261C14.4098 10.8261 14.9365 11.3528 14.9365 12.0001ZM12.9849 7.26748V9.3845C12.3819 9.56407 11.8659 9.94653 11.5161 10.4527L9.50259 9.79845C10.1874 8.47878 11.4675 7.51591 12.9849 7.26748ZM10.3531 15.3698C9.49635 14.503 8.96643 13.3123 8.96643 12.0001C8.96643 11.7544 8.98509 11.513 9.0209 11.2771L11.0351 11.9315C11.0345 11.9544 11.0333 11.9771 11.0333 12.0001C11.0333 12.6234 11.2438 13.1982 11.5967 13.6581L10.3531 15.3698ZM13.7625 16.7962C12.989 16.7962 12.2579 16.612 11.6102 16.2853L12.8541 14.5733C13.1385 14.674 13.4441 14.7294 13.7625 14.7294C14.0809 14.7294 14.3866 14.674 14.6709 14.5733L15.9148 16.2853C15.2671 16.6119 14.536 16.7962 13.7625 16.7962ZM17.1718 15.3698L15.9282 13.6582C16.2812 13.1982 16.4917 12.6234 16.4917 12.0002C16.4917 11.9772 16.4905 11.9545 16.4899 11.9316L18.5041 11.2771C18.5399 11.513 18.5585 11.7545 18.5585 12.0002C18.5586 13.3123 18.0287 14.503 17.1718 15.3698Z" fill="#D57B49"/>
</svg>
