<svg width="124" height="23" viewBox="0 0 124 23" fill="none" xmlns="http://www.w3.org/2000/svg">
<rect x="0.25" y="0.25" width="73.5" height="22.5" rx="11.25" fill="white"/>
<rect x="0.25" y="0.25" width="73.5" height="22.5" rx="11.25" stroke="#D57B49" stroke-width="0.5"/>
<path d="M14.6276 15V6.516H17.8076C18.2796 6.516 18.6996 6.564 19.0676 6.66C19.4436 6.756 19.7636 6.908 20.0276 7.116C20.2916 7.324 20.4916 7.6 20.6276 7.944C20.7716 8.28 20.8436 8.688 20.8436 9.168C20.8436 9.64 20.7556 10.044 20.5796 10.38C20.4036 10.708 20.1716 10.976 19.8836 11.184C19.5956 11.392 19.2836 11.544 18.9476 11.64L20.7236 15H19.5836L17.8916 11.82H15.6716V15H14.6276ZM15.6716 10.872H17.4716C17.7836 10.872 18.0756 10.848 18.3476 10.8C18.6276 10.752 18.8716 10.668 19.0796 10.548C19.2956 10.42 19.4636 10.244 19.5836 10.02C19.7036 9.788 19.7676 9.492 19.7756 9.132C19.7836 8.724 19.7076 8.4 19.5476 8.16C19.3876 7.912 19.1516 7.736 18.8396 7.632C18.5276 7.52 18.1476 7.464 17.6996 7.464H15.6716V10.872ZM24.3048 15.072C23.6328 15.072 23.0768 14.936 22.6368 14.664C22.1968 14.384 21.8688 14 21.6528 13.512C21.4368 13.024 21.3288 12.468 21.3288 11.844C21.3288 11.212 21.4408 10.656 21.6648 10.176C21.8968 9.688 22.2328 9.304 22.6728 9.024C23.1128 8.744 23.6528 8.604 24.2928 8.604C24.7888 8.604 25.2128 8.7 25.5648 8.892C25.9248 9.076 26.2208 9.324 26.4528 9.636C26.6848 9.948 26.8528 10.292 26.9568 10.668C27.0608 11.036 27.1048 11.408 27.0888 11.784C27.0808 11.856 27.0728 11.928 27.0648 12C27.0648 12.072 27.0608 12.144 27.0528 12.216H22.3608C22.3928 12.584 22.4848 12.916 22.6368 13.212C22.7888 13.508 23.0048 13.744 23.2848 13.92C23.5648 14.088 23.9128 14.172 24.3288 14.172C24.5368 14.172 24.7448 14.148 24.9528 14.1C25.1688 14.044 25.3608 13.952 25.5288 13.824C25.7048 13.696 25.8288 13.524 25.9008 13.308H26.9448C26.8488 13.716 26.6688 14.052 26.4048 14.316C26.1408 14.572 25.8248 14.764 25.4568 14.892C25.0888 15.012 24.7048 15.072 24.3048 15.072ZM22.3848 11.328H26.0448C26.0368 10.968 25.9568 10.652 25.8048 10.38C25.6528 10.108 25.4448 9.896 25.1808 9.744C24.9248 9.592 24.6168 9.516 24.2568 9.516C23.8648 9.516 23.5328 9.6 23.2608 9.768C22.9968 9.936 22.7928 10.156 22.6488 10.428C22.5048 10.7 22.4168 11 22.3848 11.328ZM29.8758 15.072C29.5878 15.072 29.3078 15.036 29.0358 14.964C28.7718 14.884 28.5318 14.768 28.3158 14.616C28.1078 14.456 27.9398 14.26 27.8118 14.028C27.6918 13.788 27.6318 13.512 27.6318 13.2C27.6318 12.84 27.6958 12.536 27.8238 12.288C27.9598 12.04 28.1398 11.844 28.3638 11.7C28.5878 11.556 28.8478 11.452 29.1438 11.388C29.4398 11.324 29.7478 11.292 30.0678 11.292H31.9278C31.9278 10.932 31.8758 10.62 31.7718 10.356C31.6758 10.092 31.5158 9.888 31.2918 9.744C31.0678 9.592 30.7718 9.516 30.4038 9.516C30.1798 9.516 29.9718 9.54 29.7798 9.588C29.5878 9.636 29.4238 9.712 29.2878 9.816C29.1518 9.92 29.0518 10.06 28.9878 10.236H27.8958C27.9518 9.948 28.0598 9.704 28.2198 9.504C28.3878 9.296 28.5878 9.128 28.8198 9C29.0598 8.864 29.3158 8.764 29.5878 8.7C29.8598 8.636 30.1318 8.604 30.4038 8.604C31.3158 8.604 31.9638 8.872 32.3478 9.408C32.7318 9.944 32.9238 10.668 32.9238 11.58V15H32.0718L32.0118 14.196C31.8358 14.436 31.6238 14.62 31.3758 14.748C31.1278 14.876 30.8718 14.96 30.6078 15C30.3518 15.048 30.1078 15.072 29.8758 15.072ZM29.9718 14.172C30.3718 14.172 30.7158 14.108 31.0038 13.98C31.2998 13.844 31.5278 13.648 31.6878 13.392C31.8478 13.136 31.9278 12.824 31.9278 12.456V12.144H30.8118C30.5478 12.144 30.2878 12.148 30.0318 12.156C29.7758 12.164 29.5438 12.196 29.3358 12.252C29.1278 12.308 28.9598 12.404 28.8318 12.54C28.7118 12.676 28.6518 12.872 28.6518 13.128C28.6518 13.368 28.7118 13.564 28.8318 13.716C28.9598 13.868 29.1238 13.984 29.3238 14.064C29.5318 14.136 29.7478 14.172 29.9718 14.172ZM33.904 15V8.676H34.888L34.936 9.66C35.096 9.412 35.28 9.212 35.488 9.06C35.704 8.908 35.94 8.796 36.196 8.724C36.46 8.644 36.744 8.604 37.048 8.604C37.104 8.604 37.156 8.604 37.204 8.604C37.26 8.604 37.316 8.604 37.372 8.604V9.564H37C36.504 9.564 36.1 9.672 35.788 9.888C35.484 10.096 35.264 10.38 35.128 10.74C34.992 11.092 34.924 11.484 34.924 11.916V15H33.904ZM40.6549 15V6.516H41.6989V14.052H46.3549V15H40.6549ZM49.5588 15.072C48.8868 15.072 48.3308 14.936 47.8908 14.664C47.4508 14.384 47.1228 14 46.9068 13.512C46.6908 13.024 46.5828 12.468 46.5828 11.844C46.5828 11.212 46.6948 10.656 46.9188 10.176C47.1508 9.688 47.4868 9.304 47.9268 9.024C48.3668 8.744 48.9068 8.604 49.5468 8.604C50.0428 8.604 50.4668 8.7 50.8188 8.892C51.1788 9.076 51.4748 9.324 51.7068 9.636C51.9388 9.948 52.1068 10.292 52.2108 10.668C52.3148 11.036 52.3588 11.408 52.3428 11.784C52.3348 11.856 52.3268 11.928 52.3188 12C52.3188 12.072 52.3148 12.144 52.3068 12.216H47.6148C47.6468 12.584 47.7388 12.916 47.8908 13.212C48.0428 13.508 48.2588 13.744 48.5388 13.92C48.8188 14.088 49.1668 14.172 49.5828 14.172C49.7908 14.172 49.9988 14.148 50.2068 14.1C50.4228 14.044 50.6148 13.952 50.7828 13.824C50.9588 13.696 51.0828 13.524 51.1548 13.308H52.1988C52.1028 13.716 51.9228 14.052 51.6588 14.316C51.3948 14.572 51.0788 14.764 50.7108 14.892C50.3428 15.012 49.9588 15.072 49.5588 15.072ZM47.6388 11.328H51.2988C51.2908 10.968 51.2108 10.652 51.0588 10.38C50.9068 10.108 50.6988 9.896 50.4348 9.744C50.1788 9.592 49.8708 9.516 49.5108 9.516C49.1188 9.516 48.7868 9.6 48.5148 9.768C48.2508 9.936 48.0468 10.156 47.9028 10.428C47.7588 10.7 47.6708 11 47.6388 11.328ZM53.5965 15V9.576H52.5645V8.676H53.5965V8.004C53.5965 7.532 53.6605 7.148 53.7885 6.852C53.9245 6.548 54.1365 6.324 54.4245 6.18C54.7205 6.036 55.1085 5.964 55.5885 5.964H56.3085V6.864H55.6965C55.4085 6.864 55.1845 6.912 55.0245 7.008C54.8725 7.104 54.7645 7.248 54.7005 7.44C54.6445 7.624 54.6165 7.852 54.6165 8.124V8.676H56.3085V9.576H54.6165V15H53.5965ZM59.347 15C58.867 15 58.479 14.928 58.183 14.784C57.895 14.64 57.683 14.416 57.547 14.112C57.419 13.808 57.355 13.424 57.355 12.96V9.576H56.323V8.676H57.355V6.792H58.375V8.676H60.067V9.576H58.375V12.852C58.375 13.284 58.451 13.604 58.603 13.812C58.763 14.012 59.083 14.112 59.563 14.112H60.031V15H59.347Z" fill="black"/>
<path d="M123.5 12C123.776 12 124 11.7761 124 11.5C124 11.2239 123.776 11 123.5 11L123.5 12ZM81.6667 11.5C81.6667 10.0272 80.4728 8.83334 79 8.83334C77.5272 8.83334 76.3333 10.0272 76.3333 11.5C76.3333 12.9728 77.5272 14.1667 79 14.1667C80.4728 14.1667 81.6667 12.9728 81.6667 11.5ZM123.5 11L79 11L79 12L123.5 12L123.5 11Z" fill="#D57B49"/>
</svg>
