<svg width="125" height="23" viewBox="0 0 125 23" fill="none" xmlns="http://www.w3.org/2000/svg">
<path d="M1 11C0.723858 11 0.5 11.2239 0.5 11.5C0.5 11.7761 0.723858 12 1 12V11ZM42.8333 11.5C42.8333 12.9728 44.0272 14.1667 45.5 14.1667C46.9728 14.1667 48.1667 12.9728 48.1667 11.5C48.1667 10.0272 46.9728 8.83333 45.5 8.83333C44.0272 8.83333 42.8333 10.0272 42.8333 11.5ZM1 12H45.5V11H1V12Z" fill="#D57B49"/>
<rect x="50.75" y="0.25" width="73.5" height="22.5" rx="11.25" fill="white"/>
<rect x="50.75" y="0.25" width="73.5" height="22.5" rx="11.25" stroke="#D57B49" stroke-width="0.5"/>
<path d="M62.0819 15V6.516H65.2619C65.7339 6.516 66.1539 6.564 66.5219 6.66C66.8979 6.756 67.2179 6.908 67.4819 7.116C67.7459 7.324 67.9459 7.6 68.0819 7.944C68.2259 8.28 68.2979 8.688 68.2979 9.168C68.2979 9.64 68.2099 10.044 68.0339 10.38C67.8579 10.708 67.6259 10.976 67.3379 11.184C67.0499 11.392 66.7379 11.544 66.4019 11.64L68.1779 15H67.0379L65.3459 11.82H63.1259V15H62.0819ZM63.1259 10.872H64.9259C65.2379 10.872 65.5299 10.848 65.8019 10.8C66.0819 10.752 66.3259 10.668 66.5339 10.548C66.7499 10.42 66.9179 10.244 67.0379 10.02C67.1579 9.788 67.2219 9.492 67.2299 9.132C67.2379 8.724 67.1619 8.4 67.0019 8.16C66.8419 7.912 66.6059 7.736 66.2939 7.632C65.9819 7.52 65.6019 7.464 65.1539 7.464H63.1259V10.872ZM71.7591 15.072C71.0871 15.072 70.5311 14.936 70.0911 14.664C69.6511 14.384 69.3231 14 69.1071 13.512C68.8911 13.024 68.7831 12.468 68.7831 11.844C68.7831 11.212 68.8951 10.656 69.1191 10.176C69.3511 9.688 69.6871 9.304 70.1271 9.024C70.5671 8.744 71.1071 8.604 71.7471 8.604C72.2431 8.604 72.6671 8.7 73.0191 8.892C73.3791 9.076 73.6751 9.324 73.9071 9.636C74.1391 9.948 74.3071 10.292 74.4111 10.668C74.5151 11.036 74.5591 11.408 74.5431 11.784C74.5351 11.856 74.5271 11.928 74.5191 12C74.5191 12.072 74.5151 12.144 74.5071 12.216H69.8151C69.8471 12.584 69.9391 12.916 70.0911 13.212C70.2431 13.508 70.4591 13.744 70.7391 13.92C71.0191 14.088 71.3671 14.172 71.7831 14.172C71.9911 14.172 72.1991 14.148 72.4071 14.1C72.6231 14.044 72.8151 13.952 72.9831 13.824C73.1591 13.696 73.2831 13.524 73.3551 13.308H74.3991C74.3031 13.716 74.1231 14.052 73.8591 14.316C73.5951 14.572 73.2791 14.764 72.9111 14.892C72.5431 15.012 72.1591 15.072 71.7591 15.072ZM69.8391 11.328H73.4991C73.4911 10.968 73.4111 10.652 73.2591 10.38C73.1071 10.108 72.8991 9.896 72.6351 9.744C72.3791 9.592 72.0711 9.516 71.7111 9.516C71.3191 9.516 70.9871 9.6 70.7151 9.768C70.4511 9.936 70.2471 10.156 70.1031 10.428C69.9591 10.7 69.8711 11 69.8391 11.328ZM77.33 15.072C77.042 15.072 76.762 15.036 76.49 14.964C76.226 14.884 75.986 14.768 75.77 14.616C75.562 14.456 75.394 14.26 75.266 14.028C75.146 13.788 75.086 13.512 75.086 13.2C75.086 12.84 75.15 12.536 75.278 12.288C75.414 12.04 75.594 11.844 75.818 11.7C76.042 11.556 76.302 11.452 76.598 11.388C76.894 11.324 77.202 11.292 77.522 11.292H79.382C79.382 10.932 79.33 10.62 79.226 10.356C79.13 10.092 78.97 9.888 78.746 9.744C78.522 9.592 78.226 9.516 77.858 9.516C77.634 9.516 77.426 9.54 77.234 9.588C77.042 9.636 76.878 9.712 76.742 9.816C76.606 9.92 76.506 10.06 76.442 10.236H75.35C75.406 9.948 75.514 9.704 75.674 9.504C75.842 9.296 76.042 9.128 76.274 9C76.514 8.864 76.77 8.764 77.042 8.7C77.314 8.636 77.586 8.604 77.858 8.604C78.77 8.604 79.418 8.872 79.802 9.408C80.186 9.944 80.378 10.668 80.378 11.58V15H79.526L79.466 14.196C79.29 14.436 79.078 14.62 78.83 14.748C78.582 14.876 78.326 14.96 78.062 15C77.806 15.048 77.562 15.072 77.33 15.072ZM77.426 14.172C77.826 14.172 78.17 14.108 78.458 13.98C78.754 13.844 78.982 13.648 79.142 13.392C79.302 13.136 79.382 12.824 79.382 12.456V12.144H78.266C78.002 12.144 77.742 12.148 77.486 12.156C77.23 12.164 76.998 12.196 76.79 12.252C76.582 12.308 76.414 12.404 76.286 12.54C76.166 12.676 76.106 12.872 76.106 13.128C76.106 13.368 76.166 13.564 76.286 13.716C76.414 13.868 76.578 13.984 76.778 14.064C76.986 14.136 77.202 14.172 77.426 14.172ZM81.3583 15V8.676H82.3423L82.3903 9.66C82.5503 9.412 82.7343 9.212 82.9423 9.06C83.1583 8.908 83.3943 8.796 83.6503 8.724C83.9143 8.644 84.1983 8.604 84.5023 8.604C84.5583 8.604 84.6103 8.604 84.6583 8.604C84.7143 8.604 84.7703 8.604 84.8263 8.604V9.564H84.4543C83.9583 9.564 83.5543 9.672 83.2423 9.888C82.9383 10.096 82.7183 10.38 82.5823 10.74C82.4463 11.092 82.3783 11.484 82.3783 11.916V15H81.3583ZM88.1092 15V6.516H91.2892C91.7612 6.516 92.1812 6.564 92.5492 6.66C92.9252 6.756 93.2452 6.908 93.5092 7.116C93.7732 7.324 93.9732 7.6 94.1092 7.944C94.2532 8.28 94.3252 8.688 94.3252 9.168C94.3252 9.64 94.2372 10.044 94.0612 10.38C93.8852 10.708 93.6532 10.976 93.3652 11.184C93.0772 11.392 92.7652 11.544 92.4292 11.64L94.2052 15H93.0652L91.3732 11.82H89.1532V15H88.1092ZM89.1532 10.872H90.9532C91.2652 10.872 91.5572 10.848 91.8292 10.8C92.1092 10.752 92.3532 10.668 92.5612 10.548C92.7772 10.42 92.9452 10.244 93.0652 10.02C93.1852 9.788 93.2492 9.492 93.2572 9.132C93.2652 8.724 93.1892 8.4 93.0292 8.16C92.8692 7.912 92.6332 7.736 92.3212 7.632C92.0092 7.52 91.6292 7.464 91.1812 7.464H89.1532V10.872ZM95.1677 15V8.676H96.1877V15H95.1677ZM95.6717 7.74C95.4637 7.74 95.2957 7.676 95.1677 7.548C95.0477 7.42 94.9877 7.256 94.9877 7.056C94.9877 6.856 95.0517 6.696 95.1797 6.576C95.3077 6.448 95.4717 6.384 95.6717 6.384C95.8557 6.384 96.0157 6.448 96.1517 6.576C96.2957 6.704 96.3677 6.864 96.3677 7.056C96.3677 7.256 96.2997 7.42 96.1637 7.548C96.0277 7.676 95.8637 7.74 95.6717 7.74ZM99.9407 17.832C99.5087 17.832 99.1087 17.764 98.7407 17.628C98.3727 17.5 98.0607 17.296 97.8047 17.016C97.5487 16.736 97.3767 16.38 97.2887 15.948H98.3447C98.4087 16.188 98.5287 16.38 98.7047 16.524C98.8807 16.668 99.0847 16.768 99.3167 16.824C99.5487 16.888 99.7767 16.92 100.001 16.92C100.433 16.92 100.781 16.832 101.045 16.656C101.317 16.488 101.513 16.252 101.633 15.948C101.753 15.652 101.813 15.312 101.813 14.928V14.052C101.677 14.292 101.497 14.488 101.273 14.64C101.049 14.792 100.805 14.904 100.541 14.976C100.277 15.04 100.005 15.072 99.7247 15.072C99.0847 15.072 98.5607 14.932 98.1527 14.652C97.7447 14.364 97.4407 13.98 97.2407 13.5C97.0487 13.012 96.9527 12.464 96.9527 11.856C96.9527 11.248 97.0527 10.7 97.2527 10.212C97.4527 9.716 97.7607 9.324 98.1767 9.036C98.5927 8.748 99.1247 8.604 99.7727 8.604C100.141 8.604 100.513 8.672 100.889 8.808C101.265 8.944 101.573 9.164 101.813 9.468L101.861 8.676H102.833V14.952C102.833 15.544 102.725 16.056 102.509 16.488C102.301 16.92 101.981 17.252 101.549 17.484C101.125 17.716 100.589 17.832 99.9407 17.832ZM99.8687 14.172C100.293 14.172 100.649 14.064 100.937 13.848C101.225 13.632 101.445 13.344 101.597 12.984C101.749 12.624 101.825 12.232 101.825 11.808C101.825 11.368 101.749 10.976 101.597 10.632C101.453 10.288 101.237 10.016 100.949 9.816C100.661 9.616 100.297 9.516 99.8567 9.516C99.4007 9.516 99.0327 9.62 98.7527 9.828C98.4807 10.036 98.2807 10.316 98.1527 10.668C98.0327 11.02 97.9727 11.412 97.9727 11.844C97.9727 12.292 98.0367 12.692 98.1647 13.044C98.2927 13.396 98.4967 13.672 98.7767 13.872C99.0567 14.072 99.4207 14.172 99.8687 14.172ZM103.835 15V6.516H104.855V9.648C105.007 9.424 105.191 9.236 105.407 9.084C105.631 8.924 105.875 8.804 106.139 8.724C106.403 8.644 106.675 8.604 106.955 8.604C107.571 8.604 108.051 8.732 108.395 8.988C108.747 9.244 108.995 9.592 109.139 10.032C109.283 10.464 109.355 10.96 109.355 11.52V15H108.335V11.832C108.335 11.552 108.315 11.276 108.275 11.004C108.243 10.724 108.175 10.472 108.071 10.248C107.967 10.024 107.807 9.844 107.591 9.708C107.383 9.572 107.099 9.504 106.739 9.504C106.395 9.504 106.099 9.58 105.851 9.732C105.611 9.884 105.419 10.088 105.275 10.344C105.131 10.592 105.023 10.868 104.951 11.172C104.887 11.468 104.855 11.76 104.855 12.048V15H103.835ZM112.893 15C112.413 15 112.025 14.928 111.729 14.784C111.441 14.64 111.229 14.416 111.093 14.112C110.965 13.808 110.901 13.424 110.901 12.96V9.576H109.869V8.676H110.901V6.792H111.921V8.676H113.613V9.576H111.921V12.852C111.921 13.284 111.997 13.604 112.149 13.812C112.309 14.012 112.629 14.112 113.109 14.112H113.577V15H112.893Z" fill="black"/>
</svg>
