<svg width="24" height="24" viewBox="0 0 24 24" fill="none" xmlns="http://www.w3.org/2000/svg">
<path d="M7.48862 19.4821C7.07024 19.9005 7.07348 20.5815 7.49186 20.9999C7.69294 21.201 7.96213 21.3145 8.24754 21.3145C8.53619 21.3145 8.80538 21.2043 9.00646 20.9999C9.21727 20.7924 9.32105 20.5167 9.32105 20.241C9.32105 19.9686 9.21727 19.6961 9.00646 19.4853C8.58808 19.067 7.907 19.0637 7.48862 19.4821ZM8.66267 20.6561C8.5524 20.7664 8.40321 20.828 8.24754 20.828C8.09186 20.828 7.94592 20.7664 7.83565 20.6561C7.60538 20.4259 7.60538 20.0561 7.8324 19.8259C7.94592 19.7124 8.09511 19.6572 8.2443 19.6572C8.39673 19.6572 8.54592 19.7124 8.66267 19.8291C8.8897 20.0561 8.8897 20.4291 8.66267 20.6561Z" fill="#D57B49"/>
<path d="M20.9124 9.09384C21.3308 8.67546 21.3308 7.99762 20.9124 7.57924C20.7016 7.36843 20.4259 7.26465 20.1502 7.26465C19.8778 7.26465 19.6021 7.36843 19.3946 7.576C18.9762 7.99438 18.9794 8.67546 19.3978 9.09384C19.6054 9.30141 19.8811 9.40843 20.1535 9.40843C20.4292 9.40843 20.7048 9.30141 20.9124 9.09384ZM19.7383 7.91978C19.9686 7.69276 20.3383 7.69276 20.5686 7.92303C20.7956 8.15005 20.7956 8.52303 20.5686 8.75005C20.3416 8.97708 19.9686 8.97708 19.7416 8.75005C19.5113 8.51978 19.5113 8.14681 19.7383 7.91978Z" fill="#D57B49"/>
<path d="M21.7038 6.72312C21.2886 6.3242 20.7081 6.11014 20.0919 6.12312C19.4821 6.13933 18.9081 6.38906 18.5156 6.80744C18.1329 7.22258 17.9189 7.76095 17.9189 8.33176C17.9189 8.67555 17.7989 8.98366 17.5881 9.19447L17.3546 9.43122L16.8713 8.94798C16.5859 8.66258 16.0865 8.66258 15.7978 8.94798L15.5319 9.21393C15.3892 9.35987 15.3113 9.54798 15.3113 9.75231C15.3113 9.95339 15.3892 10.1447 15.5319 10.2874L16.0702 10.8258L15.7265 11.1696L15.107 10.5501C14.7535 10.1999 14.1405 10.1999 13.787 10.5501C13.6119 10.7253 13.5146 10.962 13.5146 11.2085C13.5146 11.4583 13.6119 11.6918 13.787 11.8669L14.4097 12.4896L14.0627 12.8334L13.4432 12.2139C13.0929 11.8604 12.4767 11.8604 12.1265 12.2139C11.9513 12.3891 11.854 12.6226 11.854 12.8723C11.854 13.122 11.9513 13.3555 12.1265 13.5307L12.7459 14.1501L12.4021 14.4972L11.7794 13.8745C11.4292 13.5242 10.8162 13.5242 10.4627 13.8745C10.2875 14.0528 10.1902 14.2864 10.1902 14.5361C10.1902 14.7826 10.2875 15.0161 10.4627 15.1945L11.0821 15.8139L10.7383 16.1577L10.2 15.6193C9.91456 15.3339 9.4151 15.3339 9.12646 15.6193L8.86051 15.8853C8.71781 16.028 8.63997 16.2193 8.63997 16.4237C8.63997 16.6247 8.71781 16.8161 8.86051 16.9588L9.34375 17.442L9.107 17.6756C8.89618 17.8864 8.58808 18.0064 8.24429 18.0064C7.67348 18.0064 7.1351 18.2204 6.71997 18.6031C6.30159 18.9956 6.05186 19.5696 6.03564 20.1793V20.2442C6.03564 20.8312 6.2497 21.3891 6.63564 21.7912C7.05402 22.2258 7.62159 22.4723 8.22808 22.4756H8.25078C8.84754 22.4756 9.40862 22.2453 9.83024 21.8237C10.2551 21.3956 10.4951 20.8053 10.4821 20.1988C10.4756 19.8939 10.5762 19.6183 10.7708 19.4237L11.0497 19.148L11.5297 19.628C11.6789 19.7739 11.8735 19.8485 12.0648 19.8485C12.2594 19.8485 12.454 19.7739 12.6032 19.628L12.8692 19.362C13.0183 19.2128 13.0897 19.0183 13.0897 18.8237C13.0897 18.6291 13.0183 18.4377 12.8692 18.2885L12.3308 17.7501L12.6746 17.4064L13.294 18.0258C13.4756 18.2074 13.7156 18.2983 13.9524 18.2983C14.1924 18.2983 14.4292 18.2074 14.6108 18.0258C14.974 17.6626 14.974 17.0691 14.6108 16.7058L13.9946 16.0896L14.3383 15.7426L14.9578 16.362C15.1394 16.5437 15.3762 16.6345 15.6162 16.6345C15.8529 16.6345 16.0929 16.5437 16.2746 16.362C16.6378 15.9988 16.6378 15.4085 16.2746 15.0453L15.6551 14.4258L16.0021 14.082L16.6183 14.6983C16.8 14.8831 17.04 14.9707 17.28 14.9707C17.5167 14.9707 17.7567 14.8831 17.9383 14.6983C18.3016 14.335 18.3016 13.7447 17.9383 13.3815L17.3189 12.762L17.6627 12.4183L18.201 12.9566C18.3502 13.1026 18.5416 13.1772 18.7362 13.1772C18.9308 13.1772 19.1254 13.1026 19.2746 12.9566L19.5405 12.6907C19.6865 12.5415 19.7611 12.3469 19.7611 12.1523C19.7611 11.9577 19.6865 11.7631 19.5405 11.6172L19.0605 11.1372L19.3362 10.8583C19.5308 10.6637 19.8097 10.5631 20.1146 10.5696C20.7211 10.5858 21.3081 10.3426 21.7362 9.91771C22.1643 9.4896 22.3946 8.92203 22.3881 8.31555C22.3848 7.70906 22.1383 7.14149 21.7038 6.72312ZM10.427 19.0799C10.1383 19.3685 9.98591 19.7707 9.99564 20.2118C10.0054 20.682 9.82051 21.1458 9.48646 21.4799C9.1524 21.8139 8.71132 21.9988 8.23132 21.9891C7.75781 21.9858 7.31348 21.7945 6.98591 21.4539C6.67781 21.1328 6.50916 20.6756 6.52213 20.1923C6.5351 19.7123 6.7297 19.2615 7.05402 18.9599C7.3751 18.6583 7.79997 18.4928 8.24429 18.4928C8.72105 18.4896 9.14916 18.3242 9.45078 18.0193L9.68754 17.7858L10.7059 18.8042L10.427 19.0799ZM12.5254 18.6323C12.6292 18.7393 12.6292 18.9112 12.5254 19.0183L12.2594 19.2842C12.1524 19.388 11.9805 19.388 11.8735 19.2842L9.20429 16.615C9.15564 16.5631 9.12646 16.495 9.12646 16.4237C9.12646 16.3491 9.15564 16.281 9.20429 16.2291L9.47024 15.9631C9.52537 15.9112 9.59348 15.8853 9.66483 15.8853C9.73294 15.8853 9.80429 15.9112 9.85618 15.9631L12.5254 18.6323ZM11.987 17.4064L11.0821 16.5015L11.4259 16.1577L12.3308 17.0626L11.987 17.4064ZM14.267 17.0496C14.4421 17.2247 14.4421 17.5069 14.267 17.682C14.0951 17.8539 13.8129 17.8539 13.6378 17.682L10.8065 14.8507C10.7221 14.7664 10.6767 14.6528 10.6767 14.5361C10.6767 14.4161 10.7221 14.3026 10.8065 14.2183C10.8908 14.1372 11.0043 14.0885 11.1211 14.0885C11.2411 14.0885 11.3513 14.1372 11.4356 14.2183L14.267 17.0496ZM13.6508 15.7458L12.7459 14.841L13.0897 14.4939L13.9946 15.3988L13.6508 15.7458ZM15.9308 15.3891C16.1027 15.561 16.1027 15.8464 15.9308 16.0183C15.7556 16.1934 15.4735 16.1901 15.3016 16.0183L12.4702 13.1869C12.3859 13.1026 12.3405 12.9923 12.3405 12.8723C12.3405 12.7523 12.3859 12.642 12.4702 12.5577C12.5546 12.4734 12.6648 12.428 12.7848 12.428C12.9048 12.428 13.0151 12.4734 13.0994 12.5577L15.9308 15.3891ZM15.3113 14.082L14.4065 13.1772L14.7535 12.8334L15.6583 13.7383L15.3113 14.082ZM17.5946 13.7253C17.7665 13.9004 17.7665 14.1826 17.5946 14.3545C17.4194 14.5296 17.1373 14.5296 16.9621 14.3545L14.1308 11.5231C14.0497 11.442 14.001 11.3285 14.001 11.2085C14.001 11.0918 14.0497 10.9783 14.1308 10.8939C14.2151 10.8096 14.3286 10.7642 14.4486 10.7642C14.5654 10.7642 14.6789 10.8096 14.7632 10.8939L17.5946 13.7253ZM16.9751 12.4183L16.0702 11.5134L16.414 11.1696L17.3189 12.0745L16.9751 12.4183ZM19.1967 11.961C19.3005 12.068 19.3005 12.2399 19.1967 12.3469L18.9308 12.6128C18.8238 12.7166 18.6519 12.7166 18.5448 12.6128L15.8756 9.94366C15.8238 9.89177 15.7978 9.82366 15.7978 9.75231C15.7978 9.67771 15.827 9.6096 15.8756 9.55771L16.1416 9.29176C16.1967 9.23987 16.2648 9.21393 16.3362 9.21393C16.4043 9.21393 16.4756 9.23987 16.5275 9.29176L19.1967 11.961ZM21.3924 9.57393C21.0583 9.90798 20.5946 10.0961 20.1243 10.0831C19.68 10.0734 19.2811 10.2258 18.9924 10.5145L18.7167 10.7934L17.6983 9.77501L17.9319 9.53825C18.2367 9.23663 18.4021 8.80852 18.4054 8.33176C18.4054 7.88744 18.5708 7.46258 18.8724 7.14149C19.174 6.81717 19.6248 6.62258 20.1048 6.6096C20.5881 6.59663 21.0454 6.76528 21.3665 7.07339C21.707 7.40095 21.8983 7.84528 21.9016 8.31879C21.9081 8.79231 21.7265 9.23987 21.3924 9.57393Z" fill="#D57B49"/>
<path d="M3.06485 15.0583C2.64647 15.4766 2.64972 16.1577 3.0681 16.5761C3.26918 16.7772 3.53837 16.8907 3.82377 16.8907C4.11242 16.8907 4.38161 16.7804 4.58269 16.5761C4.7935 16.3685 4.89728 16.0929 4.89728 15.8172C4.89728 15.5447 4.7935 15.2723 4.58269 15.0615C4.16431 14.6431 3.48323 14.6399 3.06485 15.0583ZM4.23891 16.2323C4.12864 16.3426 3.97945 16.4042 3.82377 16.4042C3.6681 16.4042 3.52215 16.3426 3.41188 16.2323C3.18161 16.002 3.18161 15.6323 3.40864 15.402C3.52215 15.2885 3.67134 15.2334 3.82053 15.2334C3.97296 15.2334 4.12215 15.2885 4.23891 15.4053C4.46593 15.6323 4.46593 16.0053 4.23891 16.2323Z" fill="#D57B49"/>
<path d="M16.4886 4.67001C16.907 4.25163 16.907 3.57379 16.4886 3.15541C16.2778 2.9446 16.0021 2.84082 15.7265 2.84082C15.454 2.84082 15.1784 2.9446 14.9708 3.15217C14.5524 3.57055 14.5557 4.25163 14.974 4.67001C15.1816 4.87758 15.4573 4.9846 15.7297 4.9846C16.0054 4.9846 16.2811 4.87758 16.4886 4.67001ZM15.3146 3.49596C15.5449 3.26893 15.9146 3.26893 16.1449 3.4992C16.3719 3.72623 16.3719 4.0992 16.1449 4.32623C15.9178 4.55325 15.5449 4.55325 15.3178 4.32623C15.0876 4.09596 15.0876 3.72298 15.3146 3.49596Z" fill="#D57B49"/>
<path d="M17.28 2.29929C16.8649 1.90037 16.2843 1.68631 15.6681 1.69929C15.0584 1.7155 14.4843 1.96523 14.0919 2.38361C13.7092 2.79875 13.4951 3.33713 13.4951 3.90794C13.4951 4.25172 13.3751 4.55983 13.1643 4.77064L12.9308 5.0074L12.4476 4.52415C12.1621 4.23875 11.6627 4.23875 11.374 4.52415L11.1081 4.7901C10.9654 4.93604 10.8876 5.12415 10.8876 5.32848C10.8876 5.52956 10.9654 5.72091 11.1081 5.86361L11.6465 6.40199L11.3027 6.74577L10.6832 6.12631C10.3297 5.77604 9.71674 5.77604 9.36323 6.12631C9.18809 6.30145 9.0908 6.53821 9.0908 6.78469C9.0908 7.03442 9.18809 7.26794 9.36323 7.44307L9.98593 8.06577L9.6389 8.40956L9.01945 7.7901C8.66918 7.43658 8.05296 7.43658 7.70269 7.7901C7.52755 7.96523 7.43026 8.19875 7.43026 8.44848C7.43026 8.69821 7.52755 8.93172 7.70269 9.10686L8.32215 9.72631L7.97836 10.0733L7.35566 9.45064C7.00539 9.10037 6.39242 9.10037 6.03891 9.45064C5.86377 9.62902 5.76647 9.86253 5.76647 10.1123C5.76647 10.3587 5.86377 10.5923 6.03891 10.7706L6.65836 11.3901L6.31458 11.7339L5.7762 11.1955C5.4908 10.9101 4.99134 10.9101 4.70269 11.1955L4.43674 11.4614C4.29404 11.6042 4.2162 11.7955 4.2162 11.9998C4.2162 12.2009 4.29404 12.3923 4.43674 12.535L4.91999 13.0182L4.68323 13.2517C4.47242 13.4625 4.16431 13.5825 3.82053 13.5825C3.24972 13.5825 2.71134 13.7966 2.2962 14.1793C1.87782 14.5717 1.62809 15.1458 1.61188 15.7555V15.8204C1.61188 16.4074 1.82593 16.9652 2.21188 17.3674C2.63026 17.802 3.19782 18.0485 3.80431 18.0517H3.82701C4.42377 18.0517 4.98485 17.8215 5.40647 17.3998C5.83134 16.9717 6.07134 16.3815 6.05836 15.775C6.05188 15.4701 6.15242 15.1944 6.34701 14.9998L6.62593 14.7242L7.10593 15.2042C7.25512 15.3501 7.44972 15.4247 7.64107 15.4247C7.83566 15.4247 8.03026 15.3501 8.17945 15.2042L8.44539 14.9382C8.59458 14.789 8.66593 14.5944 8.66593 14.3998C8.66593 14.2052 8.59458 14.0139 8.44539 13.8647L7.90701 13.3263L8.2508 12.9825L8.87026 13.602C9.05188 13.7836 9.29188 13.8744 9.52863 13.8744C9.76863 13.8744 10.0054 13.7836 10.187 13.602C10.5503 13.2387 10.5503 12.6452 10.187 12.282L9.5708 11.6658L9.91458 11.3187L10.534 11.9382C10.7157 12.1198 10.9524 12.2106 11.1924 12.2106C11.4292 12.2106 11.6692 12.1198 11.8508 11.9382C12.214 11.575 12.214 10.9847 11.8508 10.6214L11.2313 10.002L11.5784 9.65821L12.1946 10.2744C12.3762 10.4593 12.6162 10.5469 12.8562 10.5469C13.093 10.5469 13.333 10.4593 13.5146 10.2744C13.8778 9.91118 13.8778 9.32091 13.5146 8.95767L12.8951 8.33821L13.2389 7.99442L13.7773 8.5328C13.9265 8.67875 14.1178 8.75334 14.3124 8.75334C14.507 8.75334 14.7016 8.67875 14.8508 8.5328L15.1167 8.26686C15.2627 8.11767 15.3373 7.92307 15.3373 7.72848C15.3373 7.53388 15.2627 7.33929 15.1167 7.19334L14.6367 6.71334L14.9124 6.43442C15.107 6.23983 15.3859 6.13929 15.6908 6.14577C16.2973 6.16199 16.8843 5.91875 17.3124 5.49388C17.7405 5.06577 17.9708 4.49821 17.9643 3.89172C17.9611 3.28523 17.7146 2.71767 17.28 2.29929ZM6.00323 14.656C5.71458 14.9447 5.56215 15.3469 5.57188 15.7879C5.58161 16.2582 5.39674 16.722 5.06269 17.056C4.72863 17.3901 4.28755 17.575 3.80755 17.5652C3.33404 17.562 2.88972 17.3706 2.56215 17.0301C2.25404 16.709 2.08539 16.2517 2.09836 15.7685C2.11134 15.2885 2.30593 14.8377 2.63026 14.536C2.95134 14.2344 3.3762 14.069 3.82053 14.069C4.29728 14.0658 4.72539 13.9004 5.02701 13.5955L5.26377 13.362L6.28215 14.3804L6.00323 14.656ZM8.10161 14.2085C8.20539 14.3155 8.20539 14.4874 8.10161 14.5944L7.83566 14.8604C7.72863 14.9642 7.55674 14.9642 7.44972 14.8604L4.78053 12.1912C4.73188 12.1393 4.70269 12.0712 4.70269 11.9998C4.70269 11.9252 4.73188 11.8571 4.78053 11.8052L5.04647 11.5393C5.10161 11.4874 5.16972 11.4614 5.24107 11.4614C5.30918 11.4614 5.38053 11.4874 5.43242 11.5393L8.10161 14.2085ZM7.56323 12.9825L6.65836 12.0777L7.00215 11.7339L7.90701 12.6387L7.56323 12.9825ZM9.84323 12.6258C10.0184 12.8009 10.0184 13.0831 9.84323 13.2582C9.67134 13.4301 9.38918 13.4301 9.21404 13.2582L6.38269 10.4269C6.29836 10.3425 6.25296 10.229 6.25296 10.1123C6.25296 9.99226 6.29836 9.87875 6.38269 9.79442C6.46701 9.71334 6.58053 9.66469 6.69728 9.66469C6.81728 9.66469 6.92755 9.71334 7.01188 9.79442L9.84323 12.6258ZM9.22701 11.322L8.32215 10.4171L8.66593 10.0701L9.5708 10.975L9.22701 11.322ZM11.507 10.9652C11.6789 11.1371 11.6789 11.4225 11.507 11.5944C11.3319 11.7696 11.0497 11.7663 10.8778 11.5944L8.04647 8.76307C7.96215 8.67875 7.91674 8.56848 7.91674 8.44848C7.91674 8.32848 7.96215 8.21821 8.04647 8.13388C8.1308 8.04956 8.24107 8.00415 8.36107 8.00415C8.48107 8.00415 8.59134 8.04956 8.67566 8.13388L11.507 10.9652ZM10.8876 9.65821L9.98269 8.75334L10.3297 8.40956L11.2346 9.31442L10.8876 9.65821ZM13.1708 9.30145C13.3427 9.47658 13.3427 9.75875 13.1708 9.93064C12.9957 10.1058 12.7135 10.1058 12.5384 9.93064L9.70701 7.09929C9.62593 7.01821 9.57728 6.90469 9.57728 6.78469C9.57728 6.66794 9.62593 6.55442 9.70701 6.4701C9.79134 6.38577 9.90485 6.34037 10.0249 6.34037C10.1416 6.34037 10.2551 6.38577 10.3394 6.4701L13.1708 9.30145ZM12.5513 7.99442L11.6465 7.08956L11.9903 6.74577L12.8951 7.65064L12.5513 7.99442ZM14.773 7.53713C14.8767 7.64415 14.8767 7.81604 14.773 7.92307L14.507 8.18902C14.4 8.2928 14.2281 8.2928 14.1211 8.18902L11.4519 5.51983C11.4 5.46794 11.374 5.39983 11.374 5.32848C11.374 5.25388 11.4032 5.18577 11.4519 5.13388L11.7178 4.86794C11.773 4.81604 11.8411 4.7901 11.9124 4.7901C11.9805 4.7901 12.0519 4.81604 12.1038 4.86794L14.773 7.53713ZM16.9686 5.1501C16.6346 5.48415 16.1708 5.67226 15.7005 5.65929C15.2562 5.64956 14.8573 5.80199 14.5686 6.09064L14.293 6.36956L13.2746 5.35118L13.5081 5.11442C13.813 4.8128 13.9784 4.38469 13.9816 3.90794C13.9816 3.46361 14.147 3.03875 14.4486 2.71767C14.7503 2.39334 15.2011 2.19875 15.6811 2.18577C16.1643 2.1728 16.6216 2.34145 16.9427 2.64956C17.2832 2.97713 17.4746 3.42145 17.4778 3.89496C17.4843 4.36848 17.3027 4.81604 16.9686 5.1501Z" fill="#D57B49"/>
</svg>
