<svg width="601" height="210" viewBox="0 0 601 210" fill="none" xmlns="http://www.w3.org/2000/svg">
<path d="M12.375 53V21.375H0.495V14.06H32.23V21.375H20.295V53H12.375ZM45.4257 53.385C42.4924 53.385 39.9257 52.7983 37.7257 51.625C35.5257 50.415 33.8207 48.71 32.6107 46.51C31.4007 44.2733 30.7957 41.6333 30.7957 38.59C30.7957 35.4733 31.4007 32.7967 32.6107 30.56C33.8574 28.2867 35.5807 26.545 37.7807 25.335C39.9807 24.125 42.5107 23.52 45.3707 23.52C48.304 23.52 50.8524 24.1433 53.0157 25.39C55.179 26.6367 56.8657 28.3783 58.0757 30.615C59.2857 32.8517 59.8907 35.5283 59.8907 38.645C59.8907 41.6883 59.2857 44.3283 58.0757 46.565C56.9024 48.765 55.234 50.4517 53.0707 51.625C50.944 52.7983 48.3957 53.385 45.4257 53.385ZM45.3157 46.345C47.0024 46.345 48.359 45.9783 49.3857 45.245C50.4124 44.5117 51.1457 43.5583 51.5857 42.385C52.0624 41.175 52.3007 39.91 52.3007 38.59C52.3007 37.27 52.0624 36.005 51.5857 34.795C51.1457 33.585 50.4124 32.595 49.3857 31.825C48.3957 31.0183 47.039 30.615 45.3157 30.615C43.6657 30.615 42.3274 31.0183 41.3007 31.825C40.274 32.595 39.5224 33.585 39.0457 34.795C38.6057 36.005 38.3857 37.27 38.3857 38.59C38.3857 39.9467 38.6057 41.2117 39.0457 42.385C39.5224 43.5583 40.274 44.5117 41.3007 45.245C42.3274 45.9783 43.6657 46.345 45.3157 46.345ZM63.7205 63.835V24.015H70.9255L71.3105 27.645C72.4838 26.215 73.8222 25.17 75.3255 24.51C76.8655 23.85 78.5522 23.52 80.3855 23.52C83.2455 23.52 85.6105 24.18 87.4805 25.5C89.3505 26.82 90.7438 28.6167 91.6605 30.89C92.6138 33.1267 93.0905 35.6383 93.0905 38.425C93.0905 41.285 92.5955 43.8517 91.6055 46.125C90.6522 48.3617 89.2038 50.14 87.2605 51.46C85.3172 52.7433 82.8972 53.385 80.0005 53.385C78.7538 53.385 77.5805 53.2383 76.4805 52.945C75.3805 52.6517 74.4088 52.2667 73.5655 51.79C72.7222 51.2767 72.0072 50.7083 71.4205 50.085V63.835H63.7205ZM78.6805 46.455C80.4038 46.455 81.7605 46.07 82.7505 45.3C83.7405 44.53 84.4372 43.5583 84.8405 42.385C85.2438 41.175 85.4455 39.9283 85.4455 38.645C85.4455 37.2517 85.2255 35.9317 84.7855 34.685C84.3455 33.4383 83.6122 32.4483 82.5855 31.715C81.5955 30.945 80.2388 30.56 78.5155 30.56C76.9755 30.56 75.6738 30.945 74.6105 31.715C73.5472 32.4483 72.7405 33.42 72.1905 34.63C71.6405 35.84 71.3655 37.1417 71.3655 38.535C71.3655 39.9283 71.6222 41.23 72.1355 42.44C72.6855 43.65 73.4922 44.6217 74.5555 45.355C75.6555 46.0883 77.0305 46.455 78.6805 46.455ZM97.3268 40.515V33.585H116.082V40.515H97.3268ZM152.538 59.49L146.928 52.065C145.828 52.505 144.655 52.835 143.408 53.055C142.162 53.3117 140.915 53.44 139.668 53.44C135.598 53.44 132.115 52.5967 129.218 50.91C126.358 49.2233 124.158 46.895 122.618 43.925C121.115 40.955 120.363 37.5267 120.363 33.64C120.363 29.6433 121.133 26.1417 122.673 23.135C124.25 20.1283 126.468 17.8 129.328 16.15C132.225 14.4633 135.69 13.62 139.723 13.62C143.683 13.62 147.093 14.445 149.953 16.095C152.85 17.745 155.068 20.055 156.608 23.025C158.148 25.995 158.918 29.46 158.918 33.42C158.918 36.5 158.423 39.25 157.433 41.67C156.48 44.0533 155.105 46.1067 153.308 47.83L158.643 54.815L152.538 59.49ZM139.558 46.07C142.198 46.07 144.343 45.465 145.993 44.255C147.68 43.0083 148.908 41.4317 149.678 39.525C150.448 37.5817 150.833 35.5467 150.833 33.42C150.833 31.2933 150.448 29.295 149.678 27.425C148.945 25.5183 147.753 23.9783 146.103 22.805C144.453 21.595 142.327 20.99 139.723 20.99C137.047 20.99 134.865 21.6133 133.178 22.86C131.528 24.07 130.318 25.6467 129.548 27.59C128.778 29.4967 128.393 31.5133 128.393 33.64C128.393 35.7667 128.778 37.7833 129.548 39.69C130.318 41.56 131.528 43.1 133.178 44.31C134.828 45.4833 136.955 46.07 139.558 46.07ZM176.046 53.385C171.793 53.385 168.511 52.3033 166.201 50.14C163.928 47.94 162.791 44.64 162.791 40.24V24.015H170.491V39.69C170.491 41.01 170.674 42.1833 171.041 43.21C171.444 44.2 172.049 44.9883 172.856 45.575C173.699 46.1617 174.781 46.455 176.101 46.455C177.531 46.455 178.631 46.1433 179.401 45.52C180.171 44.8967 180.703 44.0717 180.996 43.045C181.289 41.9817 181.436 40.8633 181.436 39.69V24.015H189.081V40.24C189.081 44.8233 187.926 48.16 185.616 50.25C183.343 52.34 180.153 53.385 176.046 53.385ZM203.159 53.385C201.839 53.385 200.555 53.22 199.309 52.89C198.099 52.5233 197.017 51.9733 196.064 51.24C195.11 50.5067 194.359 49.59 193.809 48.49C193.259 47.39 192.984 46.1067 192.984 44.64C192.984 42.66 193.387 41.0833 194.194 39.91C195 38.7 196.082 37.7833 197.439 37.16C198.795 36.5367 200.354 36.115 202.114 35.895C203.91 35.675 205.762 35.565 207.669 35.565H211.849C211.849 34.5017 211.647 33.5667 211.244 32.76C210.877 31.9167 210.309 31.275 209.539 30.835C208.769 30.3583 207.779 30.12 206.569 30.12C205.799 30.12 205.047 30.23 204.314 30.45C203.617 30.6333 203.03 30.9083 202.554 31.275C202.077 31.6417 201.765 32.1183 201.619 32.705H193.809C194.029 31.0917 194.542 29.7167 195.349 28.58C196.155 27.4067 197.164 26.4533 198.374 25.72C199.584 24.9867 200.904 24.455 202.334 24.125C203.8 23.7583 205.304 23.575 206.844 23.575C211.06 23.575 214.177 24.785 216.194 27.205C218.21 29.5883 219.219 32.98 219.219 37.38V53H212.289L212.179 49.26C211.262 50.5433 210.217 51.4783 209.044 52.065C207.907 52.6517 206.807 53.0183 205.744 53.165C204.68 53.3117 203.819 53.385 203.159 53.385ZM204.919 47.28C206.202 47.28 207.375 47.0233 208.439 46.51C209.502 45.9967 210.345 45.3 210.969 44.42C211.592 43.54 211.904 42.55 211.904 41.45V40.735H206.624C205.854 40.735 205.102 40.7717 204.369 40.845C203.672 40.9183 203.03 41.065 202.444 41.285C201.894 41.4683 201.454 41.78 201.124 42.22C200.794 42.66 200.629 43.2467 200.629 43.98C200.629 44.7133 200.812 45.3367 201.179 45.85C201.582 46.3267 202.114 46.6933 202.774 46.95C203.434 47.17 204.149 47.28 204.919 47.28ZM224.134 53V14.06H231.834V53H224.134ZM236.837 53V24.015H244.537V53H236.837ZM240.687 21.1C239.257 21.1 238.102 20.6783 237.222 19.835C236.342 18.955 235.902 17.8367 235.902 16.48C235.902 15.05 236.361 13.895 237.277 13.015C238.194 12.135 239.349 11.695 240.742 11.695C242.026 11.695 243.126 12.135 244.042 13.015C244.996 13.8583 245.472 14.995 245.472 16.425C245.472 17.8183 245.014 18.955 244.097 19.835C243.217 20.6783 242.081 21.1 240.687 21.1ZM261.366 53.385C258.103 53.385 255.683 52.4683 254.106 50.635C252.566 48.8017 251.796 46.29 251.796 43.1V30.89H247.451V24.015H251.796V16.205H259.496V24.015H268.296V30.89H259.496V41.505C259.496 42.4583 259.606 43.2833 259.826 43.98C260.083 44.6767 260.486 45.2267 261.036 45.63C261.623 45.9967 262.411 46.18 263.401 46.18C264.281 46.18 265.014 46.0517 265.601 45.795C266.224 45.5017 266.738 45.19 267.141 44.86L269.561 50.8C268.791 51.4233 267.929 51.9367 266.976 52.34C266.059 52.7067 265.124 52.9633 264.171 53.11C263.218 53.2933 262.283 53.385 261.366 53.385ZM284.459 66.365C282.222 66.365 280.041 66.0717 277.914 65.485C275.787 64.8983 273.789 63.9083 271.919 62.515L274.504 56.355C275.677 57.235 277.016 57.9317 278.519 58.445C280.022 58.995 281.691 59.27 283.524 59.27C286.347 59.27 288.437 58.61 289.794 57.29C291.187 55.97 291.884 54.0633 291.884 51.57V50.03C291.261 50.8733 290.472 51.5517 289.519 52.065C288.602 52.5417 287.612 52.89 286.549 53.11C285.486 53.33 284.422 53.44 283.359 53.44C280.572 53.44 278.336 52.8533 276.649 51.68C274.962 50.5067 273.734 48.9117 272.964 46.895C272.231 44.8417 271.864 42.5133 271.864 39.91V24.015H279.564V38.315C279.564 39.2683 279.619 40.2217 279.729 41.175C279.839 42.1283 280.096 43.0083 280.499 43.815C280.902 44.6217 281.507 45.2817 282.314 45.795C283.121 46.2717 284.202 46.51 285.559 46.51C287.319 46.51 288.639 46.0883 289.519 45.245C290.399 44.365 290.986 43.265 291.279 41.945C291.609 40.625 291.774 39.25 291.774 37.82V24.015H299.474V48.82C299.474 51.46 299.217 53.8617 298.704 56.025C298.227 58.1883 297.402 60.04 296.229 61.58C295.092 63.12 293.552 64.2933 291.609 65.1C289.702 65.9433 287.319 66.365 284.459 66.365ZM328.208 53V21.375H316.328V14.06H348.063V21.375H336.128V53H328.208ZM350.468 53V24.015H358.168V53H350.468ZM354.318 21.1C352.888 21.1 351.733 20.6783 350.853 19.835C349.973 18.955 349.533 17.8367 349.533 16.48C349.533 15.05 349.992 13.895 350.908 13.015C351.825 12.135 352.98 11.695 354.373 11.695C355.657 11.695 356.757 12.135 357.673 13.015C358.627 13.8583 359.103 14.995 359.103 16.425C359.103 17.8183 358.645 18.955 357.728 19.835C356.848 20.6783 355.712 21.1 354.318 21.1ZM363.172 53V24.015H370.102L370.597 27.48C371.33 26.38 372.155 25.555 373.072 25.005C373.989 24.4183 374.942 24.0333 375.932 23.85C376.922 23.63 377.93 23.52 378.957 23.52C379.434 23.52 379.874 23.5383 380.277 23.575C380.68 23.575 380.974 23.575 381.157 23.575V31H379.342C377.619 31 376.115 31.2933 374.832 31.88C373.549 32.4667 372.559 33.3833 371.862 34.63C371.202 35.8767 370.872 37.4717 370.872 39.415V53H363.172ZM396.382 53.385C393.338 53.385 390.753 52.78 388.627 51.57C386.5 50.36 384.868 48.655 383.732 46.455C382.595 44.2183 382.027 41.615 382.027 38.645C382.027 35.6383 382.613 33.0167 383.787 30.78C384.96 28.5067 386.61 26.7283 388.737 25.445C390.9 24.1617 393.448 23.52 396.382 23.52C398.582 23.52 400.507 23.8867 402.157 24.62C403.843 25.3533 405.255 26.38 406.392 27.7C407.565 29.02 408.427 30.56 408.977 32.32C409.563 34.0433 409.838 35.9133 409.802 37.93C409.802 38.4433 409.783 38.9383 409.747 39.415C409.71 39.8917 409.637 40.3683 409.527 40.845H389.672C389.782 41.945 390.093 42.9533 390.607 43.87C391.12 44.7867 391.835 45.52 392.752 46.07C393.705 46.5833 394.878 46.84 396.272 46.84C397.188 46.84 398.032 46.7483 398.802 46.565C399.572 46.345 400.232 46.015 400.782 45.575C401.332 45.135 401.717 44.6217 401.937 44.035H409.527C409.05 46.1983 408.152 47.9767 406.832 49.37C405.548 50.7633 403.99 51.79 402.157 52.45C400.323 53.0733 398.398 53.385 396.382 53.385ZM389.837 35.455H402.432C402.395 34.465 402.138 33.5483 401.662 32.705C401.222 31.825 400.543 31.1283 399.627 30.615C398.747 30.065 397.61 29.79 396.217 29.79C394.823 29.79 393.65 30.065 392.697 30.615C391.78 31.165 391.083 31.88 390.607 32.76C390.167 33.6033 389.91 34.5017 389.837 35.455ZM424.992 53.385C423.636 53.385 422.242 53.2383 420.812 52.945C419.382 52.6517 418.062 52.1567 416.852 51.46C415.642 50.7267 414.616 49.755 413.772 48.545C412.929 47.2983 412.379 45.7583 412.122 43.925H419.932C420.152 44.585 420.537 45.1533 421.087 45.63C421.674 46.1067 422.334 46.455 423.067 46.675C423.837 46.895 424.607 47.005 425.377 47.005C425.891 47.005 426.404 46.9683 426.917 46.895C427.431 46.8217 427.907 46.675 428.347 46.455C428.787 46.235 429.136 45.96 429.392 45.63C429.649 45.2633 429.777 44.805 429.777 44.255C429.777 43.6683 429.594 43.21 429.227 42.88C428.861 42.55 428.347 42.2933 427.687 42.11C427.027 41.89 426.276 41.6883 425.432 41.505C423.929 41.175 422.316 40.8083 420.592 40.405C418.869 40.0017 417.384 39.415 416.137 38.645C415.624 38.2783 415.166 37.875 414.762 37.435C414.359 36.995 414.029 36.5 413.772 35.95C413.516 35.4 413.314 34.8317 413.167 34.245C413.021 33.6217 412.947 32.9617 412.947 32.265C412.947 30.6883 413.277 29.35 413.937 28.25C414.634 27.1133 415.551 26.1967 416.687 25.5C417.824 24.8033 419.089 24.3083 420.482 24.015C421.876 23.685 423.306 23.52 424.772 23.52C426.752 23.52 428.586 23.85 430.272 24.51C431.959 25.1333 433.352 26.1233 434.452 27.48C435.552 28.8 436.231 30.5233 436.487 32.65H429.117C428.971 31.8433 428.476 31.2017 427.632 30.725C426.789 30.2117 425.744 29.955 424.497 29.955C424.057 29.955 423.581 29.9917 423.067 30.065C422.591 30.1383 422.151 30.2667 421.747 30.45C421.344 30.6333 421.014 30.89 420.757 31.22C420.501 31.5133 420.372 31.9167 420.372 32.43C420.372 32.8333 420.482 33.2 420.702 33.53C420.959 33.86 421.307 34.135 421.747 34.355C422.224 34.575 422.792 34.7767 423.452 34.96C424.699 35.2533 425.946 35.5283 427.192 35.785C428.476 36.005 429.612 36.2433 430.602 36.5C431.812 36.7567 432.912 37.1783 433.902 37.765C434.929 38.3517 435.754 39.1583 436.377 40.185C437.037 41.175 437.367 42.4767 437.367 44.09C437.367 45.9233 437.001 47.445 436.267 48.655C435.534 49.8283 434.544 50.7633 433.297 51.46C432.087 52.1567 430.749 52.6517 429.282 52.945C427.852 53.2383 426.422 53.385 424.992 53.385Z" fill="#D57B49"/>
<path d="M464.368 53.385C463.048 53.385 461.765 53.22 460.518 52.89C459.308 52.5233 458.226 51.9733 457.273 51.24C456.32 50.5067 455.568 49.59 455.018 48.49C454.468 47.39 454.193 46.1067 454.193 44.64C454.193 42.66 454.596 41.0833 455.403 39.91C456.21 38.7 457.291 37.7833 458.648 37.16C460.005 36.5367 461.563 36.115 463.323 35.895C465.12 35.675 466.971 35.565 468.878 35.565H473.058C473.058 34.5017 472.856 33.5667 472.453 32.76C472.086 31.9167 471.518 31.275 470.748 30.835C469.978 30.3583 468.988 30.12 467.778 30.12C467.008 30.12 466.256 30.23 465.523 30.45C464.826 30.6333 464.24 30.9083 463.763 31.275C463.286 31.6417 462.975 32.1183 462.828 32.705H455.018C455.238 31.0917 455.751 29.7167 456.558 28.58C457.365 27.4067 458.373 26.4533 459.583 25.72C460.793 24.9867 462.113 24.455 463.543 24.125C465.01 23.7583 466.513 23.575 468.053 23.575C472.27 23.575 475.386 24.785 477.403 27.205C479.42 29.5883 480.428 32.98 480.428 37.38V53H473.498L473.388 49.26C472.471 50.5433 471.426 51.4783 470.253 52.065C469.116 52.6517 468.016 53.0183 466.953 53.165C465.89 53.3117 465.028 53.385 464.368 53.385ZM466.128 47.28C467.411 47.28 468.585 47.0233 469.648 46.51C470.711 45.9967 471.555 45.3 472.178 44.42C472.801 43.54 473.113 42.55 473.113 41.45V40.735H467.833C467.063 40.735 466.311 40.7717 465.578 40.845C464.881 40.9183 464.24 41.065 463.653 41.285C463.103 41.4683 462.663 41.78 462.333 42.22C462.003 42.66 461.838 43.2467 461.838 43.98C461.838 44.7133 462.021 45.3367 462.388 45.85C462.791 46.3267 463.323 46.6933 463.983 46.95C464.643 47.17 465.358 47.28 466.128 47.28ZM485.343 53V24.015H492.548L492.933 27.37C493.739 26.38 494.656 25.61 495.683 25.06C496.746 24.4733 497.809 24.07 498.873 23.85C499.973 23.63 500.963 23.52 501.843 23.52C504.629 23.52 506.793 24.125 508.333 25.335C509.909 26.545 511.028 28.1767 511.688 30.23C512.384 32.2467 512.733 34.5017 512.733 36.995V53H505.033V37.985C505.033 37.105 504.959 36.225 504.813 35.345C504.666 34.465 504.391 33.6583 503.988 32.925C503.621 32.1917 503.089 31.605 502.393 31.165C501.696 30.725 500.779 30.505 499.643 30.505C498.176 30.505 496.948 30.8717 495.958 31.605C494.968 32.3383 494.234 33.3283 493.758 34.575C493.281 35.8217 493.043 37.1967 493.043 38.7V53H485.343ZM529.479 53.385C526.545 53.385 524.107 52.725 522.164 51.405C520.257 50.0483 518.827 48.2517 517.874 46.015C516.92 43.7417 516.444 41.23 516.444 38.48C516.444 35.5833 516.957 33.0167 517.984 30.78C519.01 28.5067 520.532 26.7283 522.549 25.445C524.565 24.1617 527.077 23.52 530.084 23.52C531.11 23.52 532.119 23.6483 533.109 23.905C534.135 24.125 535.07 24.4733 535.914 24.95C536.794 25.39 537.545 25.9767 538.169 26.71V14.06H545.869V53H538.389L538.279 49.755C537.619 50.5983 536.812 51.295 535.859 51.845C534.942 52.3583 533.952 52.7433 532.889 53C531.825 53.2567 530.689 53.385 529.479 53.385ZM531.019 46.455C532.669 46.455 534.007 46.07 535.034 45.3C536.097 44.53 536.885 43.54 537.399 42.33C537.912 41.12 538.169 39.8183 538.169 38.425C538.169 36.995 537.912 35.6933 537.399 34.52C536.922 33.31 536.152 32.3567 535.089 31.66C534.062 30.9267 532.705 30.56 531.019 30.56C529.332 30.56 527.975 30.945 526.949 31.715C525.922 32.485 525.189 33.4933 524.749 34.74C524.345 35.95 524.144 37.2517 524.144 38.645C524.144 39.6717 524.254 40.6617 524.474 41.615C524.73 42.5317 525.134 43.3567 525.684 44.09C526.234 44.8233 526.949 45.41 527.829 45.85C528.709 46.2533 529.772 46.455 531.019 46.455ZM4.125 123V84.06H32.175V91.375H11.99V100.175H29.315V107.215H11.99V115.74H32.175V123H4.125ZM33.3902 123L43.5102 108.205L33.8852 94.015H42.8502L48.5702 103.145L54.1802 94.015H62.8702L53.1902 108.37L63.5302 123H54.5652L48.2402 113.485L41.9702 123H33.3902ZM65.7615 133.835V94.015H72.9665L73.3515 97.645C74.5249 96.215 75.8632 95.17 77.3665 94.51C78.9065 93.85 80.5932 93.52 82.4265 93.52C85.2865 93.52 87.6515 94.18 89.5215 95.5C91.3915 96.82 92.7849 98.6167 93.7015 100.89C94.6549 103.127 95.1315 105.638 95.1315 108.425C95.1315 111.285 94.6365 113.852 93.6465 116.125C92.6932 118.362 91.2449 120.14 89.3015 121.46C87.3582 122.743 84.9382 123.385 82.0415 123.385C80.7949 123.385 79.6215 123.238 78.5215 122.945C77.4215 122.652 76.4499 122.267 75.6065 121.79C74.7632 121.277 74.0482 120.708 73.4615 120.085V133.835H65.7615ZM80.7215 116.455C82.4449 116.455 83.8015 116.07 84.7915 115.3C85.7815 114.53 86.4782 113.558 86.8815 112.385C87.2849 111.175 87.4865 109.928 87.4865 108.645C87.4865 107.252 87.2665 105.932 86.8265 104.685C86.3865 103.438 85.6532 102.448 84.6265 101.715C83.6365 100.945 82.2799 100.56 80.5565 100.56C79.0165 100.56 77.7149 100.945 76.6515 101.715C75.5882 102.448 74.7815 103.42 74.2315 104.63C73.6815 105.84 73.4065 107.142 73.4065 108.535C73.4065 109.928 73.6632 111.23 74.1765 112.44C74.7265 113.65 75.5332 114.622 76.5965 115.355C77.6965 116.088 79.0715 116.455 80.7215 116.455ZM112.238 123.385C109.194 123.385 106.609 122.78 104.483 121.57C102.356 120.36 100.724 118.655 99.5878 116.455C98.4511 114.218 97.8828 111.615 97.8828 108.645C97.8828 105.638 98.4695 103.017 99.6428 100.78C100.816 98.5067 102.466 96.7283 104.593 95.445C106.756 94.1617 109.304 93.52 112.238 93.52C114.438 93.52 116.363 93.8867 118.013 94.62C119.699 95.3533 121.111 96.38 122.248 97.7C123.421 99.02 124.283 100.56 124.833 102.32C125.419 104.043 125.694 105.913 125.658 107.93C125.658 108.443 125.639 108.938 125.603 109.415C125.566 109.892 125.493 110.368 125.383 110.845H105.528C105.638 111.945 105.949 112.953 106.463 113.87C106.976 114.787 107.691 115.52 108.608 116.07C109.561 116.583 110.734 116.84 112.128 116.84C113.044 116.84 113.888 116.748 114.658 116.565C115.428 116.345 116.088 116.015 116.638 115.575C117.188 115.135 117.573 114.622 117.793 114.035H125.383C124.906 116.198 124.008 117.977 122.688 119.37C121.404 120.763 119.846 121.79 118.013 122.45C116.179 123.073 114.254 123.385 112.238 123.385ZM105.693 105.455H118.288C118.251 104.465 117.994 103.548 117.518 102.705C117.078 101.825 116.399 101.128 115.483 100.615C114.603 100.065 113.466 99.79 112.073 99.79C110.679 99.79 109.506 100.065 108.553 100.615C107.636 101.165 106.939 101.88 106.463 102.76C106.023 103.603 105.766 104.502 105.693 105.455ZM129.519 123V94.015H136.449L136.944 97.48C137.677 96.38 138.502 95.555 139.419 95.005C140.335 94.4183 141.289 94.0333 142.279 93.85C143.269 93.63 144.277 93.52 145.304 93.52C145.78 93.52 146.22 93.5383 146.624 93.575C147.027 93.575 147.32 93.575 147.504 93.575V101H145.689C143.965 101 142.462 101.293 141.179 101.88C139.895 102.467 138.905 103.383 138.209 104.63C137.549 105.877 137.219 107.472 137.219 109.415V123H129.519ZM161.835 123.385C158.572 123.385 156.152 122.468 154.575 120.635C153.035 118.802 152.265 116.29 152.265 113.1V100.89H147.92V94.015H152.265V86.205H159.965V94.015H168.765V100.89H159.965V111.505C159.965 112.458 160.075 113.283 160.295 113.98C160.552 114.677 160.955 115.227 161.505 115.63C162.092 115.997 162.88 116.18 163.87 116.18C164.75 116.18 165.484 116.052 166.07 115.795C166.694 115.502 167.207 115.19 167.61 114.86L170.03 120.8C169.26 121.423 168.399 121.937 167.445 122.34C166.529 122.707 165.594 122.963 164.64 123.11C163.687 123.293 162.752 123.385 161.835 123.385ZM202.321 123.44C199.608 123.44 197.078 123.018 194.731 122.175C192.421 121.332 190.478 119.993 188.901 118.16C187.361 116.327 186.389 113.962 185.986 111.065H194.016C194.346 112.312 194.951 113.32 195.831 114.09C196.711 114.823 197.756 115.355 198.966 115.685C200.213 116.015 201.514 116.18 202.871 116.18C203.898 116.18 204.906 116.052 205.896 115.795C206.886 115.538 207.693 115.098 208.316 114.475C208.976 113.852 209.306 113.008 209.306 111.945C209.306 111.138 209.123 110.478 208.756 109.965C208.426 109.452 207.931 109.048 207.271 108.755C206.648 108.425 205.878 108.132 204.961 107.875C204.191 107.655 203.384 107.472 202.541 107.325C201.734 107.178 200.928 106.995 200.121 106.775C199.351 106.555 198.599 106.298 197.866 106.005C196.473 105.638 195.134 105.198 193.851 104.685C192.568 104.135 191.431 103.457 190.441 102.65C189.451 101.807 188.663 100.762 188.076 99.515C187.526 98.2683 187.251 96.765 187.251 95.005C187.251 93.0983 187.563 91.485 188.186 90.165C188.846 88.845 189.708 87.7633 190.771 86.92C191.871 86.04 193.081 85.3617 194.401 84.885C195.758 84.4083 197.114 84.0783 198.471 83.895C199.828 83.7117 201.111 83.62 202.321 83.62C204.851 83.62 207.124 84.06 209.141 84.94C211.158 85.82 212.808 87.14 214.091 88.9C215.374 90.66 216.108 92.8783 216.291 95.555H208.646C208.499 94.455 208.096 93.5567 207.436 92.86C206.776 92.1633 205.933 91.65 204.906 91.32C203.916 90.99 202.798 90.825 201.551 90.825C200.744 90.825 199.956 90.8983 199.186 91.045C198.416 91.1917 197.719 91.43 197.096 91.76C196.509 92.0533 196.033 92.4567 195.666 92.97C195.336 93.4833 195.171 94.1067 195.171 94.84C195.171 95.5733 195.373 96.215 195.776 96.765C196.179 97.2783 196.766 97.7367 197.536 98.14C198.343 98.5067 199.278 98.855 200.341 99.185C201.441 99.5517 202.596 99.845 203.806 100.065C205.016 100.285 206.171 100.578 207.271 100.945C208.664 101.312 209.966 101.752 211.176 102.265C212.386 102.742 213.449 103.365 214.366 104.135C215.283 104.868 215.998 105.822 216.511 106.995C217.024 108.132 217.281 109.543 217.281 111.23C217.281 113.467 216.859 115.373 216.016 116.95C215.209 118.49 214.091 119.737 212.661 120.69C211.268 121.643 209.673 122.34 207.876 122.78C206.079 123.22 204.228 123.44 202.321 123.44ZM235 123.385C231.956 123.385 229.371 122.78 227.245 121.57C225.118 120.36 223.486 118.655 222.35 116.455C221.213 114.218 220.645 111.615 220.645 108.645C220.645 105.638 221.231 103.017 222.405 100.78C223.578 98.5067 225.228 96.7283 227.355 95.445C229.518 94.1617 232.066 93.52 235 93.52C237.2 93.52 239.125 93.8867 240.775 94.62C242.461 95.3533 243.873 96.38 245.01 97.7C246.183 99.02 247.045 100.56 247.595 102.32C248.181 104.043 248.456 105.913 248.42 107.93C248.42 108.443 248.401 108.938 248.365 109.415C248.328 109.892 248.255 110.368 248.145 110.845H228.29C228.4 111.945 228.711 112.953 229.225 113.87C229.738 114.787 230.453 115.52 231.37 116.07C232.323 116.583 233.496 116.84 234.89 116.84C235.806 116.84 236.65 116.748 237.42 116.565C238.19 116.345 238.85 116.015 239.4 115.575C239.95 115.135 240.335 114.622 240.555 114.035H248.145C247.668 116.198 246.77 117.977 245.45 119.37C244.166 120.763 242.608 121.79 240.775 122.45C238.941 123.073 237.016 123.385 235 123.385ZM228.455 105.455H241.05C241.013 104.465 240.756 103.548 240.28 102.705C239.84 101.825 239.161 101.128 238.245 100.615C237.365 100.065 236.228 99.79 234.835 99.79C233.441 99.79 232.268 100.065 231.315 100.615C230.398 101.165 229.701 101.88 229.225 102.76C228.785 103.603 228.528 104.502 228.455 105.455ZM252.28 123V94.015H259.21L259.705 97.48C260.439 96.38 261.264 95.555 262.18 95.005C263.097 94.4183 264.05 94.0333 265.04 93.85C266.03 93.63 267.039 93.52 268.065 93.52C268.542 93.52 268.982 93.5383 269.385 93.575C269.789 93.575 270.082 93.575 270.265 93.575V101H268.45C266.727 101 265.224 101.293 263.94 101.88C262.657 102.467 261.667 103.383 260.97 104.63C260.31 105.877 259.98 107.472 259.98 109.415V123H252.28ZM279.922 123L269.747 94.015H278.162L285.092 116.73L291.967 94.015H300.437L290.262 123H279.922ZM302.341 123V94.015H310.041V123H302.341ZM306.191 91.1C304.761 91.1 303.606 90.6783 302.726 89.835C301.846 88.955 301.406 87.8367 301.406 86.48C301.406 85.05 301.864 83.895 302.781 83.015C303.698 82.135 304.853 81.695 306.246 81.695C307.529 81.695 308.629 82.135 309.546 83.015C310.499 83.8583 310.976 84.995 310.976 86.425C310.976 87.8183 310.518 88.955 309.601 89.835C308.721 90.6783 307.584 91.1 306.191 91.1ZM328.025 123.385C325.055 123.385 322.506 122.78 320.38 121.57C318.29 120.36 316.695 118.655 315.595 116.455C314.495 114.218 313.945 111.597 313.945 108.59C313.945 105.547 314.513 102.907 315.65 100.67C316.786 98.3967 318.418 96.6367 320.545 95.39C322.708 94.1433 325.311 93.52 328.355 93.52C330.701 93.52 332.791 93.9417 334.625 94.785C336.458 95.6283 337.925 96.8383 339.025 98.415C340.161 99.9917 340.821 101.935 341.005 104.245H333.47C333.14 102.962 332.498 102.027 331.545 101.44C330.628 100.853 329.528 100.56 328.245 100.56C326.595 100.56 325.275 100.963 324.285 101.77C323.331 102.577 322.635 103.603 322.195 104.85C321.791 106.097 321.59 107.343 321.59 108.59C321.59 109.947 321.81 111.23 322.25 112.44C322.69 113.613 323.386 114.585 324.34 115.355C325.33 116.088 326.613 116.455 328.19 116.455C329.51 116.455 330.665 116.162 331.655 115.575C332.645 114.952 333.286 113.998 333.58 112.715H341.28C341.096 115.098 340.381 117.078 339.135 118.655C337.888 120.232 336.293 121.423 334.35 122.23C332.443 123 330.335 123.385 328.025 123.385ZM358.084 123.385C355.04 123.385 352.455 122.78 350.329 121.57C348.202 120.36 346.57 118.655 345.434 116.455C344.297 114.218 343.729 111.615 343.729 108.645C343.729 105.638 344.315 103.017 345.489 100.78C346.662 98.5067 348.312 96.7283 350.439 95.445C352.602 94.1617 355.15 93.52 358.084 93.52C360.284 93.52 362.209 93.8867 363.859 94.62C365.545 95.3533 366.957 96.38 368.094 97.7C369.267 99.02 370.129 100.56 370.679 102.32C371.265 104.043 371.54 105.913 371.504 107.93C371.504 108.443 371.485 108.938 371.449 109.415C371.412 109.892 371.339 110.368 371.229 110.845H351.374C351.484 111.945 351.795 112.953 352.309 113.87C352.822 114.787 353.537 115.52 354.454 116.07C355.407 116.583 356.58 116.84 357.974 116.84C358.89 116.84 359.734 116.748 360.504 116.565C361.274 116.345 361.934 116.015 362.484 115.575C363.034 115.135 363.419 114.622 363.639 114.035H371.229C370.752 116.198 369.854 117.977 368.534 119.37C367.25 120.763 365.692 121.79 363.859 122.45C362.025 123.073 360.1 123.385 358.084 123.385ZM351.539 105.455H364.134C364.097 104.465 363.84 103.548 363.364 102.705C362.924 101.825 362.245 101.128 361.329 100.615C360.449 100.065 359.312 99.79 357.919 99.79C356.525 99.79 355.352 100.065 354.399 100.615C353.482 101.165 352.785 101.88 352.309 102.76C351.869 103.603 351.612 104.502 351.539 105.455ZM392.207 123V100.89H387.862V94.015H392.207V91.375C392.207 89.175 392.555 87.3783 393.252 85.985C393.985 84.555 395.085 83.51 396.552 82.85C398.055 82.19 399.962 81.86 402.272 81.86H407.057V88.68H403.262C402.418 88.68 401.74 88.8083 401.227 89.065C400.75 89.3217 400.42 89.725 400.237 90.275C400.053 90.7883 399.962 91.43 399.962 92.2V94.015H407.057V100.89H399.962V123H392.207ZM422.788 123.385C419.855 123.385 417.288 122.798 415.088 121.625C412.888 120.415 411.183 118.71 409.973 116.51C408.763 114.273 408.158 111.633 408.158 108.59C408.158 105.473 408.763 102.797 409.973 100.56C411.22 98.2867 412.943 96.545 415.143 95.335C417.343 94.125 419.873 93.52 422.733 93.52C425.666 93.52 428.215 94.1433 430.378 95.39C432.541 96.6367 434.228 98.3783 435.438 100.615C436.648 102.852 437.253 105.528 437.253 108.645C437.253 111.688 436.648 114.328 435.438 116.565C434.265 118.765 432.596 120.452 430.433 121.625C428.306 122.798 425.758 123.385 422.788 123.385ZM422.678 116.345C424.365 116.345 425.721 115.978 426.748 115.245C427.775 114.512 428.508 113.558 428.948 112.385C429.425 111.175 429.663 109.91 429.663 108.59C429.663 107.27 429.425 106.005 428.948 104.795C428.508 103.585 427.775 102.595 426.748 101.825C425.758 101.018 424.401 100.615 422.678 100.615C421.028 100.615 419.69 101.018 418.663 101.825C417.636 102.595 416.885 103.585 416.408 104.795C415.968 106.005 415.748 107.27 415.748 108.59C415.748 109.947 415.968 111.212 416.408 112.385C416.885 113.558 417.636 114.512 418.663 115.245C419.69 115.978 421.028 116.345 422.678 116.345ZM441.083 123V94.015H448.013L448.508 97.48C449.241 96.38 450.066 95.555 450.983 95.005C451.899 94.4183 452.853 94.0333 453.843 93.85C454.833 93.63 455.841 93.52 456.868 93.52C457.344 93.52 457.784 93.5383 458.188 93.575C458.591 93.575 458.884 93.575 459.068 93.575V101H457.253C455.529 101 454.026 101.293 452.743 101.88C451.459 102.467 450.469 103.383 449.773 104.63C449.113 105.877 448.783 107.472 448.783 109.415V123H441.083ZM485.182 123.385C483.862 123.385 482.579 123.22 481.332 122.89C480.122 122.523 479.04 121.973 478.087 121.24C477.134 120.507 476.382 119.59 475.832 118.49C475.282 117.39 475.007 116.107 475.007 114.64C475.007 112.66 475.41 111.083 476.217 109.91C477.024 108.7 478.105 107.783 479.462 107.16C480.819 106.537 482.377 106.115 484.137 105.895C485.934 105.675 487.785 105.565 489.692 105.565H493.872C493.872 104.502 493.67 103.567 493.267 102.76C492.9 101.917 492.332 101.275 491.562 100.835C490.792 100.358 489.802 100.12 488.592 100.12C487.822 100.12 487.07 100.23 486.337 100.45C485.64 100.633 485.054 100.908 484.577 101.275C484.1 101.642 483.789 102.118 483.642 102.705H475.832C476.052 101.092 476.565 99.7167 477.372 98.58C478.179 97.4067 479.187 96.4533 480.397 95.72C481.607 94.9867 482.927 94.455 484.357 94.125C485.824 93.7583 487.327 93.575 488.867 93.575C493.084 93.575 496.2 94.785 498.217 97.205C500.234 99.5883 501.242 102.98 501.242 107.38V123H494.312L494.202 119.26C493.285 120.543 492.24 121.478 491.067 122.065C489.93 122.652 488.83 123.018 487.767 123.165C486.704 123.312 485.842 123.385 485.182 123.385ZM486.942 117.28C488.225 117.28 489.399 117.023 490.462 116.51C491.525 115.997 492.369 115.3 492.992 114.42C493.615 113.54 493.927 112.55 493.927 111.45V110.735H488.647C487.877 110.735 487.125 110.772 486.392 110.845C485.695 110.918 485.054 111.065 484.467 111.285C483.917 111.468 483.477 111.78 483.147 112.22C482.817 112.66 482.652 113.247 482.652 113.98C482.652 114.713 482.835 115.337 483.202 115.85C483.605 116.327 484.137 116.693 484.797 116.95C485.457 117.17 486.172 117.28 486.942 117.28ZM18.81 193.44C16.0967 193.44 13.5667 193.018 11.22 192.175C8.91 191.332 6.96667 189.993 5.39 188.16C3.85 186.327 2.87833 183.962 2.475 181.065H10.505C10.835 182.312 11.44 183.32 12.32 184.09C13.2 184.823 14.245 185.355 15.455 185.685C16.7017 186.015 18.0033 186.18 19.36 186.18C20.3867 186.18 21.395 186.052 22.385 185.795C23.375 185.538 24.1817 185.098 24.805 184.475C25.465 183.852 25.795 183.008 25.795 181.945C25.795 181.138 25.6117 180.478 25.245 179.965C24.915 179.452 24.42 179.048 23.76 178.755C23.1367 178.425 22.3667 178.132 21.45 177.875C20.68 177.655 19.8733 177.472 19.03 177.325C18.2233 177.178 17.4167 176.995 16.61 176.775C15.84 176.555 15.0883 176.298 14.355 176.005C12.9617 175.638 11.6233 175.198 10.34 174.685C9.05667 174.135 7.92 173.457 6.93 172.65C5.94 171.807 5.15167 170.762 4.565 169.515C4.015 168.268 3.74 166.765 3.74 165.005C3.74 163.098 4.05167 161.485 4.675 160.165C5.335 158.845 6.19667 157.763 7.26 156.92C8.36 156.04 9.57 155.362 10.89 154.885C12.2467 154.408 13.6033 154.078 14.96 153.895C16.3167 153.712 17.6 153.62 18.81 153.62C21.34 153.62 23.6133 154.06 25.63 154.94C27.6467 155.82 29.2967 157.14 30.58 158.9C31.8633 160.66 32.5967 162.878 32.78 165.555H25.135C24.9883 164.455 24.585 163.557 23.925 162.86C23.265 162.163 22.4217 161.65 21.395 161.32C20.405 160.99 19.2867 160.825 18.04 160.825C17.2333 160.825 16.445 160.898 15.675 161.045C14.905 161.192 14.2083 161.43 13.585 161.76C12.9983 162.053 12.5217 162.457 12.155 162.97C11.825 163.483 11.66 164.107 11.66 164.84C11.66 165.573 11.8617 166.215 12.265 166.765C12.6683 167.278 13.255 167.737 14.025 168.14C14.8317 168.507 15.7667 168.855 16.83 169.185C17.93 169.552 19.085 169.845 20.295 170.065C21.505 170.285 22.66 170.578 23.76 170.945C25.1533 171.312 26.455 171.752 27.665 172.265C28.875 172.742 29.9383 173.365 30.855 174.135C31.7717 174.868 32.4867 175.822 33 176.995C33.5133 178.132 33.77 179.543 33.77 181.23C33.77 183.467 33.3483 185.373 32.505 186.95C31.6983 188.49 30.58 189.737 29.15 190.69C27.7567 191.643 26.1617 192.34 24.365 192.78C22.5683 193.22 20.7167 193.44 18.81 193.44ZM38.2336 193V164.015H45.1636L45.8236 167.26C46.5569 166.233 47.3636 165.463 48.2436 164.95C49.1603 164.4 50.0769 164.033 50.9936 163.85C51.9103 163.667 52.7536 163.575 53.5236 163.575C55.2469 163.575 56.7686 163.905 58.0886 164.565C59.4086 165.225 60.4719 166.288 61.2786 167.755C62.0486 166.692 62.8919 165.867 63.8086 165.28C64.7253 164.657 65.6969 164.217 66.7236 163.96C67.7503 163.703 68.7953 163.575 69.8586 163.575C72.0953 163.575 73.8919 164.052 75.2486 165.005C76.6419 165.922 77.6503 167.205 78.2736 168.855C78.9336 170.505 79.2636 172.43 79.2636 174.63V193H71.5636V176.665C71.5636 176.005 71.5269 175.327 71.4536 174.63C71.3803 173.933 71.1969 173.273 70.9036 172.65C70.6469 172.027 70.2436 171.513 69.6936 171.11C69.1803 170.707 68.4469 170.505 67.4936 170.505C66.5769 170.505 65.8069 170.707 65.1836 171.11C64.5603 171.513 64.0653 172.063 63.6986 172.76C63.3319 173.42 63.0569 174.153 62.8736 174.96C62.7269 175.73 62.6536 176.518 62.6536 177.325V193H54.9536V176.61C54.9536 175.987 54.9169 175.327 54.8436 174.63C54.7703 173.933 54.6053 173.273 54.3486 172.65C54.0919 172.027 53.6703 171.513 53.0836 171.11C52.5336 170.707 51.7636 170.505 50.7736 170.505C49.4169 170.505 48.3719 170.908 47.6386 171.715C46.9419 172.485 46.4836 173.42 46.2636 174.52C46.0436 175.583 45.9336 176.573 45.9336 177.49V193H38.2336ZM97.4995 193.385C94.5662 193.385 91.9995 192.798 89.7995 191.625C87.5995 190.415 85.8945 188.71 84.6845 186.51C83.4745 184.273 82.8695 181.633 82.8695 178.59C82.8695 175.473 83.4745 172.797 84.6845 170.56C85.9312 168.287 87.6545 166.545 89.8545 165.335C92.0545 164.125 94.5845 163.52 97.4445 163.52C100.378 163.52 102.926 164.143 105.09 165.39C107.253 166.637 108.94 168.378 110.15 170.615C111.36 172.852 111.965 175.528 111.965 178.645C111.965 181.688 111.36 184.328 110.15 186.565C108.976 188.765 107.308 190.452 105.145 191.625C103.018 192.798 100.47 193.385 97.4995 193.385ZM97.3895 186.345C99.0762 186.345 100.433 185.978 101.46 185.245C102.486 184.512 103.22 183.558 103.66 182.385C104.136 181.175 104.375 179.91 104.375 178.59C104.375 177.27 104.136 176.005 103.66 174.795C103.22 173.585 102.486 172.595 101.46 171.825C100.47 171.018 99.1129 170.615 97.3895 170.615C95.7395 170.615 94.4012 171.018 93.3745 171.825C92.3479 172.595 91.5962 173.585 91.1195 174.795C90.6795 176.005 90.4595 177.27 90.4595 178.59C90.4595 179.947 90.6795 181.212 91.1195 182.385C91.5962 183.558 92.3479 184.512 93.3745 185.245C94.4012 185.978 95.7395 186.345 97.3895 186.345ZM129.324 193.385C126.391 193.385 123.824 192.798 121.624 191.625C119.424 190.415 117.719 188.71 116.509 186.51C115.299 184.273 114.694 181.633 114.694 178.59C114.694 175.473 115.299 172.797 116.509 170.56C117.756 168.287 119.479 166.545 121.679 165.335C123.879 164.125 126.409 163.52 129.269 163.52C132.203 163.52 134.751 164.143 136.914 165.39C139.078 166.637 140.764 168.378 141.974 170.615C143.184 172.852 143.789 175.528 143.789 178.645C143.789 181.688 143.184 184.328 141.974 186.565C140.801 188.765 139.133 190.452 136.969 191.625C134.843 192.798 132.294 193.385 129.324 193.385ZM129.214 186.345C130.901 186.345 132.258 185.978 133.284 185.245C134.311 184.512 135.044 183.558 135.484 182.385C135.961 181.175 136.199 179.91 136.199 178.59C136.199 177.27 135.961 176.005 135.484 174.795C135.044 173.585 134.311 172.595 133.284 171.825C132.294 171.018 130.938 170.615 129.214 170.615C127.564 170.615 126.226 171.018 125.199 171.825C124.173 172.595 123.421 173.585 122.944 174.795C122.504 176.005 122.284 177.27 122.284 178.59C122.284 179.947 122.504 181.212 122.944 182.385C123.421 183.558 124.173 184.512 125.199 185.245C126.226 185.978 127.564 186.345 129.214 186.345ZM160.764 193C158.344 193 156.309 192.707 154.659 192.12C153.046 191.533 151.817 190.543 150.974 189.15C150.167 187.72 149.764 185.777 149.764 183.32V170.89H145.474V164.015H149.764V156.26H157.464V164.015H163.789V170.89H157.464V182.22C157.464 183.43 157.684 184.383 158.124 185.08C158.564 185.777 159.554 186.125 161.094 186.125H163.514V193H160.764ZM166.661 193V154.06H174.361V167.37C175.204 166.38 176.139 165.61 177.166 165.06C178.229 164.51 179.292 164.125 180.356 163.905C181.456 163.648 182.464 163.52 183.381 163.52C186.094 163.52 188.221 164.125 189.761 165.335C191.301 166.545 192.401 168.177 193.061 170.23C193.721 172.283 194.051 174.538 194.051 176.995V193H186.351V178.095C186.351 177.215 186.259 176.335 186.076 175.455C185.929 174.575 185.654 173.768 185.251 173.035C184.847 172.265 184.279 171.66 183.546 171.22C182.812 170.743 181.841 170.505 180.631 170.505C179.494 170.505 178.522 170.743 177.716 171.22C176.909 171.697 176.249 172.338 175.736 173.145C175.259 173.915 174.911 174.777 174.691 175.73C174.471 176.683 174.361 177.637 174.361 178.59V193H166.661ZM214.384 193V154.06H230.059C232.002 154.06 233.854 154.262 235.614 154.665C237.411 155.032 239.024 155.673 240.454 156.59C241.884 157.507 243.002 158.79 243.809 160.44C244.652 162.053 245.074 164.125 245.074 166.655C245.074 168.525 244.762 170.212 244.139 171.715C243.516 173.218 242.599 174.502 241.389 175.565C240.179 176.628 238.731 177.453 237.044 178.04L245.679 193H236.824L229.234 179.305H222.249V193H214.384ZM222.249 172.32H229.509C230.646 172.32 231.672 172.228 232.589 172.045C233.542 171.825 234.349 171.495 235.009 171.055C235.706 170.615 236.237 170.028 236.604 169.295C237.007 168.562 237.209 167.663 237.209 166.6C237.246 165.243 236.952 164.198 236.329 163.465C235.742 162.695 234.899 162.163 233.799 161.87C232.736 161.54 231.471 161.375 230.004 161.375H222.249V172.32ZM250.104 193V164.015H257.804V193H250.104ZM253.954 161.1C252.524 161.1 251.369 160.678 250.489 159.835C249.609 158.955 249.169 157.837 249.169 156.48C249.169 155.05 249.627 153.895 250.544 153.015C251.461 152.135 252.616 151.695 254.009 151.695C255.292 151.695 256.392 152.135 257.309 153.015C258.262 153.858 258.739 154.995 258.739 156.425C258.739 157.818 258.281 158.955 257.364 159.835C256.484 160.678 255.347 161.1 253.954 161.1ZM274.743 193.385C271.809 193.385 269.371 192.725 267.428 191.405C265.521 190.048 264.091 188.252 263.138 186.015C262.184 183.742 261.708 181.23 261.708 178.48C261.708 175.583 262.221 173.017 263.248 170.78C264.274 168.507 265.796 166.728 267.813 165.445C269.829 164.162 272.341 163.52 275.348 163.52C276.374 163.52 277.383 163.648 278.373 163.905C279.399 164.125 280.334 164.473 281.178 164.95C282.058 165.39 282.809 165.977 283.433 166.71V154.06H291.133V193H283.653L283.543 189.755C282.883 190.598 282.076 191.295 281.123 191.845C280.206 192.358 279.216 192.743 278.153 193C277.089 193.257 275.953 193.385 274.743 193.385ZM276.283 186.455C277.933 186.455 279.271 186.07 280.298 185.3C281.361 184.53 282.149 183.54 282.663 182.33C283.176 181.12 283.433 179.818 283.433 178.425C283.433 176.995 283.176 175.693 282.663 174.52C282.186 173.31 281.416 172.357 280.353 171.66C279.326 170.927 277.969 170.56 276.283 170.56C274.596 170.56 273.239 170.945 272.213 171.715C271.186 172.485 270.453 173.493 270.013 174.74C269.609 175.95 269.408 177.252 269.408 178.645C269.408 179.672 269.518 180.662 269.738 181.615C269.994 182.532 270.398 183.357 270.948 184.09C271.498 184.823 272.213 185.41 273.093 185.85C273.973 186.253 275.036 186.455 276.283 186.455ZM309.338 193.385C306.294 193.385 303.709 192.78 301.583 191.57C299.456 190.36 297.824 188.655 296.688 186.455C295.551 184.218 294.983 181.615 294.983 178.645C294.983 175.638 295.569 173.017 296.743 170.78C297.916 168.507 299.566 166.728 301.693 165.445C303.856 164.162 306.404 163.52 309.338 163.52C311.538 163.52 313.463 163.887 315.113 164.62C316.799 165.353 318.211 166.38 319.348 167.7C320.521 169.02 321.383 170.56 321.933 172.32C322.519 174.043 322.794 175.913 322.758 177.93C322.758 178.443 322.739 178.938 322.703 179.415C322.666 179.892 322.593 180.368 322.483 180.845H302.628C302.738 181.945 303.049 182.953 303.563 183.87C304.076 184.787 304.791 185.52 305.708 186.07C306.661 186.583 307.834 186.84 309.228 186.84C310.144 186.84 310.988 186.748 311.758 186.565C312.528 186.345 313.188 186.015 313.738 185.575C314.288 185.135 314.673 184.622 314.893 184.035H322.483C322.006 186.198 321.108 187.977 319.788 189.37C318.504 190.763 316.946 191.79 315.113 192.45C313.279 193.073 311.354 193.385 309.338 193.385ZM302.793 175.455H315.388C315.351 174.465 315.094 173.548 314.618 172.705C314.178 171.825 313.499 171.128 312.583 170.615C311.703 170.065 310.566 169.79 309.173 169.79C307.779 169.79 306.606 170.065 305.653 170.615C304.736 171.165 304.039 171.88 303.563 172.76C303.123 173.603 302.866 174.502 302.793 175.455Z" fill="black"/>
<rect x="311" y="149.206" width="239" height="50" rx="25" transform="rotate(-8.47071 311 149.206)" fill="#D57B49" fill-opacity="0.2"/>
<path d="M333.513 176.183L331.845 164.979L336.07 164.35C337.241 164.175 338.271 164.248 339.16 164.569C340.06 164.888 340.788 165.432 341.344 166.201C341.912 166.968 342.285 167.954 342.464 169.156C342.64 170.338 342.574 171.378 342.265 172.276C341.966 173.161 341.438 173.887 340.681 174.453C339.922 175.008 338.947 175.374 337.755 175.552L333.513 176.183ZM335.465 173.757L337.428 173.465C338.208 173.349 338.814 173.108 339.245 172.742C339.676 172.375 339.963 171.912 340.106 171.352C340.249 170.791 340.269 170.168 340.167 169.482C340.068 168.818 339.868 168.238 339.568 167.743C339.277 167.237 338.866 166.867 338.335 166.633C337.815 166.398 337.148 166.341 336.336 166.462L334.421 166.747L335.465 173.757ZM345.073 174.462L343.405 163.257L347.915 162.586C348.474 162.502 349.016 162.481 349.539 162.522C350.072 162.55 350.564 162.666 351.014 162.868C351.465 163.071 351.842 163.392 352.145 163.832C352.457 164.26 352.667 164.838 352.775 165.566C352.855 166.104 352.838 166.603 352.723 167.062C352.608 167.522 352.399 167.93 352.097 168.288C351.794 168.646 351.413 168.945 350.952 169.186L354.078 173.121L351.53 173.5L348.759 169.885L346.75 170.184L347.336 174.125L345.073 174.462ZM346.45 168.174L348.539 167.863C348.866 167.815 349.158 167.744 349.414 167.652C349.679 167.548 349.896 167.418 350.068 167.264C350.249 167.107 350.377 166.916 350.451 166.689C350.536 166.461 350.555 166.193 350.51 165.887C350.462 165.496 350.333 165.207 350.122 165.023C349.92 164.827 349.655 164.71 349.326 164.673C349.006 164.623 348.635 164.63 348.213 164.693L345.981 165.025L346.45 168.174ZM355.984 172.837L354.316 161.632L356.579 161.295L358.247 172.5L355.984 172.837ZM363.612 171.701L357.86 161.105L360.329 160.737L364.846 169.56L366.532 159.813L368.985 159.448L366.587 171.258L363.612 171.701ZM371.933 170.462L370.265 159.257L378.336 158.055L378.649 160.16L372.841 161.025L373.218 163.557L378.203 162.815L378.505 164.84L373.52 165.583L373.885 168.036L379.693 167.171L380.004 169.26L371.933 170.462ZM386.932 168.228L382.525 157.431L385.042 157.056L388.303 165.484L388.982 156.47L391.973 156.024L395.218 164.454L395.835 155.449L398.224 155.093L397.187 166.701L394.053 167.167L390.828 158.977L390.16 167.747L386.932 168.228ZM401.173 166.107L399.505 154.902L401.768 154.565L403.436 165.77L401.173 166.107ZM408.184 165.063L406.828 155.963L403.41 156.472L403.097 154.368L412.228 153.008L412.541 155.112L409.107 155.624L410.462 164.723L408.184 165.063ZM415.222 164.015L413.553 152.81L415.816 152.473L416.507 157.11L421.349 156.389L420.659 151.752L422.937 151.413L424.606 162.617L422.327 162.956L421.66 158.478L416.818 159.199L417.485 163.678L415.222 164.015ZM436.247 161.013C435.097 161.184 434.081 161.098 433.2 160.755C432.327 160.4 431.616 159.826 431.067 159.034C430.528 158.241 430.174 157.275 430.004 156.135C429.832 154.975 429.892 153.93 430.185 153.002C430.489 152.073 431.006 151.311 431.737 150.717C432.467 150.112 433.396 149.726 434.525 149.558C435.379 149.43 436.166 149.464 436.885 149.659C437.603 149.843 438.21 150.19 438.706 150.698C439.212 151.194 439.578 151.846 439.806 152.653L437.623 152.979C437.408 152.482 437.068 152.118 436.602 151.885C436.145 151.64 435.574 151.569 434.888 151.671C434.128 151.784 433.548 152.049 433.146 152.464C432.753 152.868 432.497 153.359 432.379 153.938C432.258 154.505 432.243 155.09 432.332 155.691C432.425 156.314 432.619 156.889 432.913 157.417C433.207 157.944 433.607 158.349 434.113 158.629C434.629 158.908 435.261 158.992 436.01 158.88C436.453 158.814 436.84 158.692 437.169 158.514C437.497 158.325 437.752 158.087 437.936 157.801C438.131 157.513 438.244 157.189 438.277 156.828L440.54 156.491C440.566 157.318 440.394 158.05 440.026 158.687C439.657 159.324 439.146 159.842 438.494 160.241C437.84 160.63 437.091 160.887 436.247 161.013ZM447.841 159.286C446.691 159.457 445.663 159.362 444.757 159.001C443.862 158.639 443.129 158.063 442.559 157.274C441.997 156.474 441.634 155.514 441.467 154.396C441.297 153.256 441.37 152.221 441.684 151.29C442.009 150.357 442.552 149.591 443.315 148.993C444.076 148.383 445.032 147.993 446.182 147.821C447.321 147.652 448.338 147.743 449.232 148.095C450.125 148.447 450.857 149.018 451.428 149.806C452.009 150.593 452.384 151.557 452.554 152.696C452.72 153.814 452.642 154.845 452.318 155.788C452.004 156.72 451.467 157.495 450.708 158.115C449.957 158.723 449.001 159.113 447.841 159.286ZM447.557 157.161C448.316 157.048 448.908 156.782 449.331 156.363C449.753 155.944 450.03 155.445 450.159 154.865C450.299 154.283 450.324 153.691 450.234 153.09C450.168 152.647 450.04 152.219 449.849 151.805C449.668 151.39 449.426 151.027 449.12 150.716C448.815 150.406 448.442 150.181 448.001 150.042C447.558 149.892 447.046 149.86 446.466 149.947C445.717 150.058 445.131 150.324 444.708 150.742C444.284 151.151 443.996 151.647 443.846 152.23C443.706 152.811 443.682 153.413 443.775 154.036C443.868 154.658 444.066 155.227 444.369 155.743C444.683 156.257 445.103 156.653 445.63 156.93C446.165 157.196 446.808 157.272 447.557 157.161ZM455.156 158.067L453.487 146.863L455.798 146.519L462.102 153.329L460.973 145.748L463.236 145.411L464.905 156.616L462.657 156.95L456.302 150.229L457.419 157.73L455.156 158.067ZM467.273 156.263L465.604 145.058L473.58 143.871L473.893 145.975L468.18 146.826L468.612 149.722L473.438 149.003L473.75 151.092L468.923 151.811L469.536 155.926L467.273 156.263ZM476.823 154.84L475.155 143.636L477.418 143.299L479.086 154.503L476.823 154.84ZM481.46 154.15L479.791 142.946L484.017 142.316C485.188 142.142 486.218 142.215 487.107 142.535C488.006 142.854 488.734 143.398 489.291 144.168C489.858 144.935 490.231 145.92 490.41 147.123C490.586 148.305 490.52 149.344 490.212 150.242C489.912 151.128 489.384 151.854 488.627 152.419C487.869 152.974 486.893 153.341 485.701 153.518L481.46 154.15ZM483.412 151.724L485.374 151.432C486.155 151.315 486.761 151.074 487.191 150.708C487.622 150.342 487.909 149.879 488.052 149.318C488.195 148.758 488.215 148.135 488.113 147.449C488.014 146.784 487.815 146.205 487.515 145.71C487.223 145.203 486.812 144.833 486.282 144.6C485.761 144.364 485.095 144.307 484.283 144.428L482.368 144.713L483.412 151.724ZM493.02 152.428L491.351 141.224L499.422 140.022L499.736 142.127L493.928 142.992L494.305 145.524L499.29 144.781L499.591 146.807L494.606 147.549L494.972 150.002L500.78 149.137L501.091 151.226L493.02 152.428ZM502.849 150.965L501.18 139.76L503.491 139.416L509.795 146.226L508.666 138.645L510.929 138.308L512.597 149.513L510.35 149.847L503.995 143.126L505.112 150.628L502.849 150.965ZM519.763 148.575C518.613 148.746 517.598 148.66 516.716 148.317C515.844 147.962 515.133 147.388 514.583 146.596C514.045 145.803 513.69 144.837 513.521 143.697C513.348 142.537 513.408 141.492 513.701 140.564C514.005 139.635 514.522 138.873 515.254 138.279C515.983 137.674 516.912 137.288 518.041 137.12C518.896 136.992 519.683 137.026 520.402 137.221C521.12 137.405 521.727 137.752 522.223 138.26C522.728 138.756 523.095 139.408 523.323 140.215L521.139 140.541C520.925 140.044 520.585 139.68 520.119 139.447C519.662 139.202 519.09 139.131 518.404 139.233C517.645 139.346 517.064 139.611 516.662 140.026C516.27 140.43 516.014 140.921 515.895 141.5C515.775 142.067 515.759 142.652 515.849 143.253C515.942 143.876 516.135 144.451 516.429 144.979C516.724 145.507 517.123 145.911 517.629 146.191C518.145 146.47 518.778 146.554 519.527 146.442C519.97 146.377 520.356 146.254 520.685 146.076C521.013 145.887 521.269 145.649 521.453 145.363C521.647 145.075 521.761 144.751 521.793 144.39L524.056 144.053C524.082 144.88 523.911 145.612 523.542 146.249C523.173 146.886 522.663 147.404 522.01 147.804C521.356 148.192 520.607 148.449 519.763 148.575ZM526.263 147.478L524.594 136.273L532.665 135.071L532.978 137.176L527.17 138.041L527.547 140.573L532.532 139.831L532.834 141.856L527.849 142.599L528.214 145.052L534.022 144.187L534.334 146.276L526.263 147.478Z" fill="#D57B49"/>
</svg>
