<svg width="64" height="64" viewBox="0 0 64 64" fill="none" xmlns="http://www.w3.org/2000/svg">
<circle opacity="0.2" cx="31.7309" cy="31.7308" r="31.7308" fill="#D57B49"/>
<g clip-path="url(#clip0_216_3323)">
<path d="M44.8967 45.6705C47.7388 42.5627 49.4727 38.4248 49.4727 33.8819C49.4727 29.0845 47.5384 24.7384 44.408 21.5807C44.6127 21.3634 44.7392 21.0709 44.7392 20.7482C44.7392 20.076 44.195 19.5318 43.5235 19.5318C43.1438 19.5318 42.8049 19.7061 42.582 19.9783C39.6451 17.7395 35.9782 16.4092 31.9999 16.4092C22.3502 16.4092 14.5272 24.2322 14.5272 33.8819C14.5272 38.4248 16.2611 42.5627 19.1032 45.6705C18.374 45.9588 17.8572 46.6704 17.8572 47.5022C17.8572 48.0464 18.078 48.5386 18.4345 48.8958C18.791 49.2516 19.2832 49.4724 19.8274 49.4724H44.1725C45.2602 49.4724 46.1427 48.5906 46.1427 47.5022C46.1427 47.0859 46.0133 46.7006 45.7932 46.3828C45.5731 46.065 45.2609 45.8147 44.8967 45.6705ZM31.9999 44.2924C26.2505 44.2924 21.5894 39.6314 21.5894 33.8819C21.5894 28.1324 26.2505 23.4714 31.9999 23.4714C37.7494 23.4714 42.4105 28.1324 42.4105 33.8819C42.4105 39.6314 37.7494 44.2924 31.9999 44.2924Z" fill="#665E66"/>
<path d="M31.9999 21.5771C25.2042 21.5771 19.6952 27.0862 19.6952 33.8819C19.6952 40.6776 25.2042 46.1866 31.9999 46.1866C38.7957 46.1866 44.3047 40.6776 44.3047 33.8819C44.3047 27.0862 38.7957 21.5771 31.9999 21.5771ZM27.4626 38.9852C26.434 39.5793 25.1184 39.2271 24.5243 38.1977C23.9301 37.169 24.2831 35.8535 25.3118 35.2593C26.3405 34.6652 27.656 35.0181 28.2501 36.0468C28.8443 37.0755 28.492 38.391 27.4626 38.9852ZM28.2501 31.717C27.656 32.7456 26.3405 33.0986 25.3118 32.5045C24.2831 31.9103 23.9301 30.5948 24.5243 29.5661C25.1184 28.5367 26.434 28.1844 27.4626 28.7786C28.492 29.3727 28.8443 30.6883 28.2501 31.717ZM31.9999 42.5135C30.8116 42.5135 29.8491 41.5509 29.8491 40.3626C29.8491 39.1743 30.8116 38.2117 31.9999 38.2117C33.1882 38.2117 34.1508 39.1743 34.1508 40.3626C34.1508 41.5509 33.1882 42.5135 31.9999 42.5135ZM31.9999 29.552C30.8116 29.552 29.8491 28.5894 29.8491 27.4012C29.8491 26.2129 30.8116 25.2503 31.9999 25.2503C33.1882 25.2503 34.1508 26.2129 34.1508 27.4012C34.1508 28.5894 33.1882 29.552 31.9999 29.552ZM39.4756 38.1977C38.8814 39.2271 37.5659 39.5793 36.5372 38.9852C35.5078 38.391 35.1556 37.0755 35.7497 36.0468C36.3438 35.0181 37.6594 34.6652 38.6881 35.2593C39.7168 35.8535 40.0697 37.169 39.4756 38.1977ZM38.6881 32.5045C37.6594 33.0986 36.3438 32.7456 35.7497 31.717C35.1556 30.6883 35.5078 29.3727 36.5372 28.7786C37.5659 28.1844 38.8814 28.5367 39.4756 29.5661C40.0697 30.5948 39.7168 31.9103 38.6881 32.5045Z" fill="#AAAAAA"/>
<path d="M31.9999 23.4717C26.2505 23.4717 21.5894 28.1327 21.5894 33.8822C21.5894 39.6317 26.2505 44.2927 31.9999 44.2927C37.7494 44.2927 42.4104 39.6317 42.4104 33.8822C42.4104 28.1327 37.7494 23.4717 31.9999 23.4717ZM36.5372 28.7789C37.5659 28.1847 38.8814 28.537 39.4756 29.5664C40.0697 30.5951 39.7168 31.9106 38.6881 32.5048C37.6594 33.0989 36.3438 32.7459 35.7497 31.7173C35.1556 30.6886 35.5078 29.373 36.5372 28.7789ZM27.4626 38.9855C26.434 39.5796 25.1184 39.2274 24.5243 38.198C23.9301 37.1693 24.2831 35.8538 25.3118 35.2596C26.3405 34.6655 27.656 35.0184 28.2501 36.0471C28.8443 37.0758 28.492 38.3913 27.4626 38.9855ZM28.2501 31.7173C27.656 32.7459 26.3405 33.0989 25.3118 32.5048C24.2831 31.9106 23.9301 30.5951 24.5243 29.5664C25.1184 28.537 26.434 28.1847 27.4626 28.7789C28.492 29.373 28.8443 30.6886 28.2501 31.7173ZM31.9999 42.5138C30.8116 42.5138 29.8491 41.5512 29.8491 40.3629C29.8491 39.1746 30.8116 38.212 31.9999 38.212C33.1882 38.212 34.1508 39.1746 34.1508 40.3629C34.1508 41.5512 33.1882 42.5138 31.9999 42.5138ZM31.9999 29.5523C30.8116 29.5523 29.8491 28.5897 29.8491 27.4015C29.8491 26.2132 30.8116 25.2506 31.9999 25.2506C33.1882 25.2506 34.1508 26.2132 34.1508 27.4015C34.1508 28.5897 33.1882 29.5523 31.9999 29.5523ZM39.4756 38.198C38.8814 39.2274 37.5659 39.5796 36.5372 38.9855C35.5078 38.3913 35.1556 37.0758 35.7497 36.0471C36.3438 35.0184 37.6594 34.6655 38.6881 35.2596C39.7168 35.8538 40.0697 37.1693 39.4756 38.198Z" fill="#E2DFE2"/>
<path d="M31.9999 35.2858C32.7748 35.2858 33.4031 34.6576 33.4031 33.8826C33.4031 33.1077 32.7748 32.4795 31.9999 32.4795C31.225 32.4795 30.5967 33.1077 30.5967 33.8826C30.5967 34.6576 31.225 35.2858 31.9999 35.2858Z" fill="#AAAAAA"/>
<path d="M23.0414 49.4724H19.8274C19.2832 49.4724 18.791 49.2516 18.4345 48.8958C18.078 48.5386 17.8572 48.0464 17.8572 47.5022C17.8572 46.6704 18.374 45.9588 19.1032 45.6705C16.2611 42.5627 14.5272 38.4248 14.5272 33.8819C14.5272 24.2322 22.3502 16.4092 31.9999 16.4092C22.2532 16.4092 16.1198 27.1073 16.1198 33.8819C16.1198 40.6565 22.3868 46.1873 22.3868 46.1873C20.8898 46.7484 20.7963 49.4724 23.0414 49.4724Z" fill="#544F57"/>
<path d="M31.9999 44.8202C25.9687 44.8202 21.0621 39.9135 21.0621 33.8823C21.0621 27.851 25.9688 22.9443 31.9999 22.9443C38.0311 22.9443 42.9378 27.851 42.9378 33.8823C42.9378 39.9135 38.0311 44.8202 31.9999 44.8202ZM31.9999 23.999C26.5503 23.999 22.1168 28.4326 22.1168 33.8823C22.1168 39.3319 26.5503 43.7655 31.9999 43.7655C37.4495 43.7655 41.8831 39.3319 41.8831 33.8823C41.8831 28.4326 37.4495 23.999 31.9999 23.999Z" fill="black"/>
<path d="M31.9999 46.7148C24.9243 46.7148 19.1679 40.9584 19.1679 33.8828C19.1679 26.8072 24.9243 21.0508 31.9999 21.0508C39.0755 21.0508 44.8319 26.8072 44.8319 33.8828C44.8319 35.2689 44.6121 36.6324 44.1784 37.9355C44.0865 38.2118 43.7879 38.3612 43.5116 38.2693C43.2352 38.1774 43.0858 37.8788 43.1778 37.6025C43.5755 36.407 43.7772 35.1555 43.7772 33.8829C43.7772 27.3888 38.4939 22.1055 31.9999 22.1055C25.5059 22.1055 20.2226 27.3888 20.2226 33.8828C20.2226 40.3768 25.5059 45.6601 31.9999 45.6601C36.3419 45.6601 40.3188 43.2826 42.3784 39.4555C42.5163 39.1991 42.8361 39.103 43.0927 39.241C43.3491 39.3791 43.4452 39.6989 43.3071 39.9553C41.0632 44.1247 36.7306 46.7148 31.9999 46.7148Z" fill="black"/>
<path d="M31.9999 35.8131C30.9354 35.8131 30.0694 34.9471 30.0694 33.8826C30.0694 32.8182 30.9354 31.9521 31.9999 31.9521C33.0644 31.9521 33.9304 32.8182 33.9304 33.8826C33.9304 34.9471 33.0644 35.8131 31.9999 35.8131ZM31.9999 33.0068C31.517 33.0068 31.1241 33.3997 31.1241 33.8826C31.1241 34.3656 31.517 34.7584 31.9999 34.7584C32.4828 34.7584 32.8757 34.3655 32.8757 33.8826C32.8757 33.3997 32.4828 33.0068 31.9999 33.0068Z" fill="black"/>
<path d="M31.9999 30.0805C30.523 30.0805 29.3215 28.8789 29.3215 27.402C29.3215 25.9252 30.5231 24.7236 31.9999 24.7236C33.4768 24.7236 34.6784 25.9252 34.6784 27.402C34.6784 28.8789 33.4769 30.0805 31.9999 30.0805ZM31.9999 25.7782C31.1046 25.7782 30.3762 26.5067 30.3762 27.402C30.3762 28.2974 31.1045 29.0258 31.9999 29.0258C32.8953 29.0258 33.6237 28.2974 33.6237 27.402C33.6237 26.5067 32.8953 25.7782 31.9999 25.7782Z" fill="black"/>
<path d="M31.9999 43.0414C30.523 43.0414 29.3215 41.8398 29.3215 40.363C29.3215 38.8861 30.5231 37.6846 31.9999 37.6846C33.4768 37.6846 34.6784 38.8861 34.6784 40.363C34.6784 41.8398 33.4769 43.0414 31.9999 43.0414ZM31.9999 38.7392C31.1046 38.7392 30.3762 39.4676 30.3762 40.363C30.3762 41.2583 31.1045 41.9868 31.9999 41.9868C32.8953 41.9868 33.6237 41.2583 33.6237 40.363C33.6237 39.4676 32.8953 38.7392 31.9999 38.7392Z" fill="black"/>
<path d="M26.3831 33.3212C25.9189 33.3212 25.461 33.1995 25.0482 32.9612C24.4286 32.6034 23.9855 32.0259 23.8003 31.3348C23.6151 30.6437 23.7101 29.9219 24.0679 29.3023C24.4256 28.6827 25.0032 28.2395 25.6943 28.0543C26.3854 27.8691 27.1072 27.9642 27.7267 28.322C28.3463 28.6797 28.7895 29.2573 28.9747 29.9483C29.1599 30.6393 29.0648 31.3611 28.7071 31.9807C28.3493 32.6003 27.7718 33.0435 27.0807 33.2287C26.85 33.2905 26.6157 33.3212 26.3831 33.3212ZM26.3901 29.0171C26.249 29.0171 26.1071 29.0356 25.9671 29.0731C25.5482 29.1854 25.1981 29.4541 24.9812 29.8297C24.7644 30.2053 24.7068 30.6429 24.819 31.0618C24.9313 31.4807 25.2 31.8309 25.5756 32.0478C25.9513 32.2647 26.3887 32.3224 26.8077 32.21C27.2267 32.0978 27.5768 31.8291 27.7937 31.4535C28.0105 31.0779 28.0681 30.6402 27.9559 30.2213C27.8436 29.8024 27.5749 29.4522 27.1993 29.2353C26.9491 29.0909 26.6714 29.0171 26.3901 29.0171Z" fill="black"/>
<path d="M37.6081 39.8025C37.1439 39.8025 36.6859 39.6808 36.2732 39.4426C35.6536 39.0848 35.2104 38.5073 35.0252 37.8162C34.84 37.1252 34.9351 36.4034 35.2928 35.7838C35.6506 35.1642 36.2281 34.721 36.9192 34.5358C37.6103 34.3506 38.3322 34.4457 38.9517 34.8034C39.5713 35.1612 40.0145 35.7387 40.1997 36.4297C40.3849 37.1208 40.2898 37.8426 39.9321 38.4622C39.5743 39.0818 38.9968 39.525 38.3057 39.7102C38.075 39.772 37.8408 39.8025 37.6081 39.8025ZM37.6151 35.4984C37.474 35.4984 37.3321 35.517 37.1921 35.5545C36.7732 35.6667 36.423 35.9354 36.2062 36.311C35.9894 36.6867 35.9318 37.1243 36.044 37.5432C36.1563 37.9621 36.4249 38.3123 36.8006 38.5292C37.1762 38.746 37.6136 38.8037 38.0327 38.6914C38.4516 38.5791 38.8018 38.3104 39.0186 37.9348C39.2355 37.5592 39.2931 37.1216 39.1808 36.7027C39.0686 36.2838 38.7999 35.9336 38.4243 35.7167C38.1741 35.5723 37.8964 35.4984 37.6151 35.4984Z" fill="black"/>
<path d="M26.3917 39.8025C26.1591 39.8025 25.9249 39.7719 25.6942 39.7101C25.0031 39.5249 24.4255 39.0818 24.0678 38.4622C23.71 37.8426 23.615 37.1207 23.8002 36.4297C23.9854 35.7387 24.4285 35.1611 25.0481 34.8034C25.6676 34.4457 26.3894 34.3506 27.0806 34.5358C27.7717 34.721 28.3492 35.1642 28.707 35.7838C29.0647 36.4033 29.1597 37.1252 28.9746 37.8162C28.7894 38.5072 28.3463 39.0849 27.7266 39.4425C27.314 39.6808 26.8558 39.8025 26.3917 39.8025ZM26.3847 35.4984C26.1034 35.4984 25.8257 35.5722 25.5755 35.7167C25.1999 35.9335 24.9312 36.2837 24.8189 36.7027C24.7066 37.1216 24.7643 37.5592 24.9811 37.9348C25.198 38.3104 25.5481 38.5791 25.9671 38.6914C26.386 38.8037 26.8237 38.746 27.1992 38.5292C27.5748 38.3123 27.8435 37.9622 27.9558 37.5432C28.0681 37.1243 28.0104 36.6866 27.7936 36.311C27.5767 35.9354 27.2266 35.6667 26.8076 35.5545C26.6679 35.517 26.5258 35.4984 26.3847 35.4984Z" fill="black"/>
<path d="M37.6167 33.3221C37.3841 33.3221 37.1499 33.2915 36.9191 33.2297C36.228 33.0445 35.6505 32.6013 35.2927 31.9817C34.935 31.3621 34.84 30.6403 35.0251 29.9492C35.2103 29.2582 35.6535 28.6806 36.2731 28.3229C36.8926 27.9652 37.6144 27.8702 38.3056 28.0553C38.9967 28.2405 39.5742 28.6837 39.932 29.3033C40.2897 29.9229 40.3847 30.6447 40.1996 31.3357C40.0144 32.0268 39.5713 32.6044 38.9516 32.9621C38.5389 33.2003 38.0809 33.3221 37.6167 33.3221ZM37.6098 29.0179C37.3284 29.0179 37.0508 29.0917 36.8005 29.2362C36.4249 29.453 36.1563 29.8032 36.044 30.2222C35.9317 30.6411 35.9893 31.0787 36.2062 31.4543C36.423 31.8299 36.7732 32.0986 37.1921 32.2109C37.6111 32.3233 38.0487 32.2655 38.4243 32.0487C38.7999 31.8318 39.0685 31.4817 39.1808 31.0627C39.2931 30.6438 39.2355 30.2062 39.0186 29.8305C38.8018 29.4549 38.4516 29.1863 38.0327 29.074C37.8928 29.0365 37.7508 29.0179 37.6098 29.0179Z" fill="black"/>
<path d="M45.4921 19.0351C45.3571 19.0351 45.2221 18.9837 45.1191 18.8807C44.9132 18.6747 44.9132 18.3409 45.1191 18.1349L49.0996 14.1545C49.3056 13.9485 49.6394 13.9485 49.8454 14.1545C50.0513 14.3604 50.0513 14.6942 49.8454 14.9002L45.8649 18.8807C45.762 18.9837 45.627 19.0351 45.4921 19.0351Z" fill="black"/>
<path d="M43.1492 17.8152C43.0831 17.8152 43.0159 17.8027 42.9508 17.7763C42.681 17.6666 42.5512 17.3589 42.661 17.0891L43.7833 14.3289C43.893 14.0591 44.2005 13.9293 44.4704 14.039C44.7402 14.1487 44.87 14.4563 44.7602 14.7261L43.6379 17.4864C43.5547 17.6911 43.3574 17.8152 43.1492 17.8152Z" fill="black"/>
<path d="M46.984 20.9953C46.764 20.9953 46.5589 20.8566 46.4846 20.6367C46.3912 20.3608 46.5392 20.0616 46.8151 19.9683L49.3035 19.1266C49.5796 19.0333 49.8787 19.1813 49.9721 19.4571C50.0654 19.733 49.9174 20.0323 49.6415 20.1256L47.1531 20.9673C47.097 20.9863 47.04 20.9953 46.984 20.9953Z" fill="black"/>
<path d="M44.1724 50.0004H19.8275C19.1611 50.0004 18.5341 49.7409 18.062 49.2697C17.5897 48.7965 17.33 48.1692 17.33 47.5029C17.33 46.7183 17.6889 46.0029 18.2832 45.5386C15.5162 42.2858 14 38.1723 14 33.8827C14 30.8746 14.7571 27.8972 16.1893 25.2728C16.3288 25.0171 16.6492 24.923 16.9048 25.0625C17.1604 25.202 17.2546 25.5223 17.115 25.778C15.7672 28.2479 15.0547 31.0505 15.0547 33.8827C15.0547 38.1258 16.6308 42.1861 19.4925 45.3154C19.6095 45.4434 19.6561 45.6208 19.6171 45.7898C19.5781 45.9588 19.4585 46.0978 19.2972 46.1616C18.7428 46.3808 18.3847 46.9072 18.3847 47.5028C18.3847 47.8879 18.535 48.2505 18.8079 48.5239C19.0801 48.7956 19.4424 48.9456 19.8275 48.9456H44.1725C44.968 48.9456 45.6152 48.2984 45.6152 47.5028C45.6152 47.2084 45.5268 46.9252 45.3596 46.6837C45.196 46.4474 44.9688 46.2669 44.7026 46.1615C44.5413 46.0977 44.4217 45.9587 44.3827 45.7897C44.3438 45.6206 44.3904 45.4433 44.5074 45.3153C47.3691 42.186 48.9452 38.1258 48.9452 33.8827C48.9452 29.3847 47.2009 25.1479 44.0334 21.9528C43.8333 21.751 43.8291 21.4269 44.024 21.22C44.1451 21.0915 44.2117 20.9242 44.2117 20.7491C44.2117 20.3691 43.9029 20.06 43.5233 20.06C43.3162 20.06 43.1217 20.1523 42.9898 20.3134C42.8099 20.5331 42.4883 20.5709 42.2621 20.3986C39.2918 18.1343 35.7431 16.9375 31.9999 16.9375C29.2545 16.9375 26.5283 17.6091 24.116 18.8795C21.7803 20.1096 19.7334 21.8983 18.1965 24.0521C18.0274 24.2891 17.6982 24.3443 17.4609 24.1751C17.2239 24.0059 17.1689 23.6766 17.338 23.4395C18.97 21.1523 21.1438 19.2528 23.6245 17.9463C26.1877 16.5963 29.0839 15.8828 31.9998 15.8828C35.8304 15.8828 39.4695 17.063 42.5525 19.3002C42.8363 19.1096 43.1724 19.0053 43.5233 19.0053C44.4844 19.0053 45.2663 19.7876 45.2663 20.7491C45.2663 21.0208 45.2035 21.2846 45.0849 21.5229C48.2579 24.8781 49.9998 29.25 49.9998 33.8827C49.9998 38.1726 48.4829 42.2869 45.7156 45.5398C45.9107 45.6933 46.0829 45.8759 46.2266 46.0834C46.5166 46.5021 46.6698 46.9931 46.6698 47.503C46.6698 48.88 45.5496 50.0004 44.1724 50.0004Z" fill="black"/>
</g>
<defs>
<clipPath id="clip0_216_3323">
<rect width="36" height="36" fill="white" transform="translate(14 14)"/>
</clipPath>
</defs>
</svg>
