<svg width="64" height="64" viewBox="0 0 64 64" fill="none" xmlns="http://www.w3.org/2000/svg">
<circle opacity="0.2" cx="31.731" cy="31.7308" r="31.7308" fill="#D57B49"/>
<g clip-path="url(#clip0_216_3373)">
<path d="M24.125 25.8125V29.1875H20.75C20.1312 29.1875 19.625 28.6813 19.625 28.0625V26.9375C19.625 26.3187 20.1312 25.8125 20.75 25.8125H24.125Z" fill="#E6E9ED"/>
<path d="M44.375 26.9375V28.0625C44.375 28.6813 43.8688 29.1875 43.25 29.1875H39.875V25.8125H43.25C43.8688 25.8125 44.375 26.3187 44.375 26.9375Z" fill="#E6E9ED"/>
<path d="M27.5 25.25V28.625V31.4375H25.25C24.6312 31.4375 24.125 30.9313 24.125 30.3125V29.1875V25.8125V24.6875C24.125 24.0687 24.6312 23.5625 25.25 23.5625H27.5V25.25Z" fill="#AAB2BD"/>
<path d="M39.875 29.1875V30.3125C39.875 30.9313 39.3688 31.4375 38.75 31.4375H36.5V28.625V25.25V23.5625H38.75C39.3688 23.5625 39.875 24.0687 39.875 24.6875V25.8125V29.1875Z" fill="#AAB2BD"/>
<path d="M33.125 15.125C34.9869 15.125 36.5 16.6381 36.5 18.5L34.25 19.625L31.9944 18.5L29.75 19.625L27.5 18.5C27.5 16.6381 29.0131 15.125 30.875 15.125H33.125Z" fill="#838F9B"/>
<path d="M36.5 23.5625V25.25L34.25 26.375L31.9944 25.25L29.75 26.375L27.5 25.25V23.5625V21.875L29.75 23L31.9944 21.875L34.25 23L36.5 21.875V23.5625Z" fill="#838F9B"/>
<path d="M36.5 31.4375V32L34.25 33.125L31.9944 32L29.75 33.125L27.5 32V31.4375V28.625L29.75 29.75L31.9944 28.625L34.25 29.75L36.5 28.625V31.4375Z" fill="#838F9B"/>
<path d="M36.5 35.375V36.5C36.5 38.3619 34.9869 39.875 33.125 39.875H32H30.875C29.0131 39.875 27.5 38.3619 27.5 36.5V35.375L29.75 36.5L31.9944 35.375L34.25 36.5L36.5 35.375Z" fill="#838F9B"/>
<path d="M28.625 39.875L27.5 42.125L28.625 44.3694L27.5 46.625L28.625 48.875H27.5C25.6381 48.875 24.125 47.3619 24.125 45.5V43.25C24.125 41.3881 25.6381 39.875 27.5 39.875H28.625Z" fill="#838F9B"/>
<path d="M35.375 39.875L34.25 42.125L35.375 44.3694L34.25 46.625L35.375 48.875H32L30.875 46.625L32 44.3694L30.875 42.125L32 39.875H33.125H35.375Z" fill="#838F9B"/>
<path d="M42.125 39.875L41 42.125L42.125 44.3694L41 46.625L42.125 48.875H38.75L37.625 46.625L38.75 44.3694L37.625 42.125L38.75 39.875H42.125Z" fill="#838F9B"/>
<path d="M48.875 43.25V45.5C48.875 47.3619 47.3619 48.875 45.5 48.875L44.375 46.625L45.5 44.3694L44.375 42.125L45.5 39.875C47.3619 39.875 48.875 41.3881 48.875 43.25Z" fill="#838F9B"/>
<path d="M36.5 18.5V21.875L34.25 23L31.9944 21.875L29.75 23L27.5 21.875V18.5L29.75 19.625L31.9944 18.5L34.25 19.625L36.5 18.5Z" fill="#E6E9ED"/>
<path d="M36.5 25.25V28.625L34.25 29.75L31.9944 28.625L29.75 29.75L27.5 28.625V25.25L29.75 26.375L31.9944 25.25L34.25 26.375L36.5 25.25Z" fill="#E6E9ED"/>
<path d="M36.5 32V35.375L34.25 36.5L31.9944 35.375L29.75 36.5L27.5 35.375V32L29.75 33.125L31.9944 32L34.25 33.125L36.5 32Z" fill="#E6E9ED"/>
<path d="M45.5 39.875L44.375 42.125L45.5 44.3694L44.375 46.625L45.5 48.875H42.125L41 46.625L42.125 44.3694L41 42.125L42.125 39.875H45.5Z" fill="#E6E9ED"/>
<path d="M38.75 39.875L37.625 42.125L38.75 44.3694L37.625 46.625L38.75 48.875H35.375L34.25 46.625L35.375 44.3694L34.25 42.125L35.375 39.875H38.75Z" fill="#E6E9ED"/>
<path d="M32 39.875L30.875 42.125L32 44.3694L30.875 46.625L32 48.875H28.625L27.5 46.625L28.625 44.3694L27.5 42.125L28.625 39.875H30.875H32Z" fill="#E6E9ED"/>
<path d="M25.25 19.0625L20.75 21.875V20.75H15.125V17.375H20.75V16.25L25.25 19.0625Z" fill="#FCD770"/>
<path d="M48.875 33.125V36.5H43.25V37.625L38.75 34.8125L43.25 32V33.125H48.875Z" fill="#FCD770"/>
<path d="M45.5 39.3125H35.8751C36.6069 38.597 37.0625 37.6014 37.0625 36.5V32H38.75C39.6804 32 40.4375 31.2429 40.4375 30.3125V29.75H43.25C44.1804 29.75 44.9375 28.9929 44.9375 28.0625V26.9375C44.9375 26.0071 44.1804 25.25 43.25 25.25H40.4375V24.6875C40.4375 23.7571 39.6804 23 38.75 23H37.0625V18.5C37.0625 16.3293 35.2957 14.5625 33.125 14.5625H30.875C28.7043 14.5625 26.9375 16.3293 26.9375 18.5V23H25.25C24.3196 23 23.5625 23.7571 23.5625 24.6875V25.25H20.75C19.8196 25.25 19.0625 26.0071 19.0625 26.9375V28.0625C19.0625 28.9929 19.8196 29.75 20.75 29.75H23.5625V30.3125C23.5625 31.2429 24.3196 32 25.25 32H26.9375V36.5C26.9375 37.6014 27.3931 38.597 28.1249 39.3125H27.5C25.3293 39.3125 23.5625 41.0793 23.5625 43.25V45.5C23.5625 47.6707 25.3293 49.4375 27.5 49.4375H45.5C47.6707 49.4375 49.4375 47.6707 49.4375 45.5V43.25C49.4375 41.0793 47.6707 39.3125 45.5 39.3125ZM44.8711 44.3711L43.7461 46.6227L44.5899 48.3125H42.4726L41.6289 46.6227L42.7539 44.3711L41.6289 42.1227L42.4726 40.4375H44.5893L43.7461 42.1227L44.8711 44.3711ZM31.5039 46.6227L32.6289 44.3711L31.5039 42.1227L32.3476 40.4375H33.125H34.4643L33.6211 42.1227L34.7461 44.3711L33.6211 46.6227L34.4649 48.3125H32.3476L31.5039 46.6227ZM34.8789 46.6227L36.0039 44.3711L34.8789 42.1227L35.7226 40.4375H37.8393L36.9961 42.1227L38.1211 44.3711L36.9961 46.6227L37.8399 48.3125H35.7226L34.8789 46.6227ZM38.2539 46.6227L39.3789 44.3711L38.2539 42.1227L39.0976 40.4375H41.2143L40.3711 42.1227L41.4961 44.3711L40.3711 46.6227L41.2149 48.3125H39.0976L38.2539 46.6227ZM29.7478 20.2539L31.9961 19.1289L34.2477 20.2539L35.9375 19.4101V21.5274L34.2477 22.3711L31.9961 21.2461L29.7478 22.3711L28.0625 21.5274V19.4107L29.7478 20.2539ZM35.9375 31.6524L34.2477 32.4961L31.9961 31.3711L29.7478 32.4961L28.0625 31.6524V29.5357L29.7478 30.3789L31.9961 29.2539L34.2477 30.3789L35.9375 29.5351V31.6524ZM35.9375 28.2774L34.2477 29.1211L31.9961 27.9961L29.7478 29.1211L28.0625 28.2774V26.1607L29.7478 27.0039L31.9961 25.8789L34.2477 27.0039L35.9375 26.1601V28.2774ZM29.7478 23.6289L31.9961 22.5039L34.2477 23.6289L35.9375 22.7851V24.9024L34.2477 25.7461L31.9961 24.6211L29.7478 25.7461L28.0625 24.9024V22.7857L29.7478 23.6289ZM28.0625 32.9107L29.7478 33.7539L31.9961 32.6289L34.2477 33.7539L35.9375 32.9101V35.0274L34.2477 35.8711L31.9961 34.7461L29.7478 35.8711L28.0625 35.0274V32.9107ZM43.25 26.375C43.5605 26.375 43.8125 26.627 43.8125 26.9375V28.0625C43.8125 28.373 43.5605 28.625 43.25 28.625H40.4375V26.375H43.25ZM38.75 24.125C39.0605 24.125 39.3125 24.377 39.3125 24.6875V30.3125C39.3125 30.623 39.0605 30.875 38.75 30.875H37.0625V24.125H38.75ZM30.875 15.6875H33.125C34.5622 15.6875 35.7378 16.7754 35.9037 18.1687L34.2477 18.9961L31.9961 17.8711L29.7478 18.9961L28.0957 18.1693C28.2622 16.7759 29.4378 15.6875 30.875 15.6875ZM20.75 28.625C20.4395 28.625 20.1875 28.373 20.1875 28.0625V26.9375C20.1875 26.627 20.4395 26.375 20.75 26.375H23.5625V28.625H20.75ZM25.25 30.875C24.9395 30.875 24.6875 30.623 24.6875 30.3125V24.6875C24.6875 24.377 24.9395 24.125 25.25 24.125H26.9375V30.875H25.25ZM28.0625 36.5V36.2857L29.7478 37.1289L31.9961 36.0039L34.2477 37.1289L35.9375 36.2851V36.5C35.9375 38.0508 34.6758 39.3125 33.125 39.3125H30.875C29.3242 39.3125 28.0625 38.0508 28.0625 36.5ZM31.0893 40.4375L30.2461 42.1227L31.3711 44.3711L30.2461 46.6227L31.0899 48.3125H28.9726L28.1289 46.6227L29.2539 44.3711L28.1289 42.1227L28.9726 40.4375H30.875H31.0893ZM24.6875 45.5V43.25C24.6875 41.6992 25.9492 40.4375 27.5 40.4375H27.7143L26.8711 42.1227L27.9961 44.3711L26.8711 46.6227L27.7149 48.3125H27.5C25.9492 48.3125 24.6875 47.0508 24.6875 45.5ZM48.3125 45.5C48.3125 46.9372 47.2246 48.1128 45.8313 48.2787L45.0039 46.6227L46.1289 44.3711L45.0039 42.1227L45.8308 40.4707C47.2241 40.6372 48.3125 41.8128 48.3125 43.25V45.5Z" fill="black"/>
<path d="M20.1875 22.89L26.3114 19.0622L20.1875 15.2344V16.8122H14.5625V21.3122H20.1875V22.89ZM15.6875 20.1872V17.9372H21.3125V17.265L24.1886 19.0622L21.3125 20.8594V20.1872H15.6875Z" fill="black"/>
<path d="M43.8125 32.5622V30.9844L37.6886 34.8122L43.8125 38.64V37.0622H49.4375V32.5622H43.8125ZM48.3125 35.9372H42.6875V36.6094L39.8114 34.8122L42.6875 33.015V33.6872H48.3125V35.9372Z" fill="black"/>
</g>
<defs>
<clipPath id="clip0_216_3373">
<rect width="36" height="36" fill="white" transform="translate(14 14)"/>
</clipPath>
</defs>
</svg>
