<svg width="64" height="64" viewBox="0 0 64 64" fill="none" xmlns="http://www.w3.org/2000/svg">
<circle opacity="0.2" cx="31.7309" cy="31.7308" r="31.7308" fill="#D57B49"/>
<path d="M37.1699 47.1909C37.1405 47.647 36.9386 48.0749 36.6053 48.3877C36.272 48.7004 35.8321 48.8747 35.375 48.875H26.375C25.9274 48.875 25.4982 48.6972 25.1818 48.3807C24.8653 48.0643 24.6875 47.6351 24.6875 47.1875L25.7996 22.7249C25.8077 22.5335 25.8428 22.3441 25.9036 22.1624C26.0412 21.7509 26.3048 21.393 26.657 21.1396C27.0092 20.8861 27.4322 20.7498 27.8662 20.75H37.0625C37.5101 20.75 37.9393 20.9278 38.2557 21.2443C38.5722 21.5607 38.75 21.9899 38.75 22.4375L37.1699 47.1909Z" fill="#323D42"/>
<path d="M34.25 48.875L35.9375 20.75H29.1875L27.5 48.875H34.25Z" fill="#51626B"/>
<path d="M19.625 20.75L25.4649 18.5602C27.5546 17.7765 29.7682 17.3751 32 17.375C34.2318 17.3751 36.4454 17.7765 38.5351 18.5602L44.375 20.75L43.8125 23L47.75 20.1875L45.5 16.25L44.9375 18.5L39.6241 16.5076C37.1862 15.5934 34.6037 15.1251 32 15.125C29.3963 15.1251 26.8138 15.5934 24.3759 16.5076L19.0625 18.5L18.5 16.25L16.25 20.75L20.1875 23L19.625 20.75Z" fill="#F6BF44"/>
<path d="M43.25 26.9375H45.5V44.9375H43.25V26.9375Z" fill="#52A04F"/>
<path d="M18.5 26.9375H20.75V44.9375H18.5V26.9375Z" fill="#52A04F"/>
<path d="M32.7616 26.8222L35.4914 28.1868L35.5646 26.9656L32.8347 25.601L32.9253 24.0918L35.6551 25.4564L35.7282 24.2352L32.9984 22.8706L33.1256 20.75H31.9989L31.8813 22.7114L28.9827 24.161L28.9051 25.4576L31.8037 24.0086L31.7075 25.6111L28.8089 27.0601L28.7313 28.3567L31.6293 26.9077L31.5331 28.5108L28.6351 29.9598L28.5569 31.2569L31.4555 29.8074L31.3767 31.1203L28.4782 32.5693L28.4006 33.8664L31.2991 32.4168L31.2029 34.0194L28.3044 35.4689L28.2267 36.7655L31.1253 35.3165L31.0314 36.8774L28.1429 38.1616L28.067 39.4261L30.9554 38.1419L30.8772 39.4458L27.9888 40.7294L27.9129 41.9951L30.8013 40.7109L30.7158 42.1379L27.8172 43.5875L27.7396 44.8841L30.6382 43.4351L30.542 45.0376L27.6434 46.4866L27.5652 47.7838L30.4638 46.3342L30.3119 48.875H31.4386L31.6147 45.9365L34.3445 47.3011L34.4176 46.0799L31.6878 44.7153L31.7784 43.2056L34.5082 44.5707L34.5813 43.3496L31.8521 41.9844L31.9426 40.4752L34.6719 41.8398L34.7456 40.6186L32.0157 39.254L32.1063 37.7443L34.8361 39.1094L34.9092 37.8882L32.1794 36.5231L32.2571 35.2299L34.9959 36.4471L35.0679 35.2479L32.3291 34.0312L32.4213 32.4899L35.1601 33.7072L35.2321 32.5085L32.4933 31.2913L32.5979 29.5526L35.3272 30.9178L35.4009 29.6966L32.6711 28.3314L32.7616 26.8222Z" fill="#323D42"/>
<path d="M19.625 26.9375H20.75V44.9375H19.625V26.9375Z" fill="#3B7537"/>
<path d="M43.25 26.9375H44.375V44.9375H43.25V26.9375Z" fill="#3B7537"/>
<path d="M47.75 20.1875L45.5 16.25L44.9375 18.5L39.6241 16.5076C37.1862 15.5934 34.6037 15.1251 32 15.125V17.375C34.2318 17.3751 36.4454 17.7765 38.5351 18.5602L44.375 20.75L43.8125 23L47.75 20.1875Z" fill="#FAD66F"/>
</svg>
